<svg xmlns="http://www.w3.org/2000/svg" viewBox="0 0 461.87 248.4"><defs><style>.cls-1{fill:#5680c1;}.cls-2{fill:#3abeea;}</style></defs><title>Asset 2</title><g id="Layer_2" data-name="Layer 2"><g id="Layer_2-2" data-name="Layer 2"><path class="cls-1" d="M100,56a20,20,0,0,0-5.86,15.25l.29,41.93c0,19.79-6.6,36.65-20.09,50.58a68.15,68.15,0,0,1-49.85,21.41,23.56,23.56,0,0,1-17.59-6.45A23.3,23.3,0,0,1,0,161.31a24.47,24.47,0,0,1,6.45-17.89c4.4-4.69,10.26-7,17.45-7.18a21.79,21.79,0,0,0,21.86-21.72q0-.36,0-.71c0-2.2,0-4.55-.15-7.18.15-9.68.15-14.66.15-14.81l-.29-19.94c-.29-20.09,6.3-36.95,19.65-50.73S95.33.33,115.27,0a24.47,24.47,0,0,1,17.89,6.45c4.69,4.4,7,10.26,7.18,17.45A23,23,0,0,1,134,41.09c-4.25,4.4-10,6.89-17,7.62C109.7,49.44,104.13,51.94,100,56Z"/><path class="cls-2" d="M153,105.6l24.48,63.48,24.48-63.48c3.37-8.8,9.53-13.2,18.33-13.2a21.23,21.23,0,0,1,14.66,5.72,18.09,18.09,0,0,1,6.3,14.08,20.85,20.85,0,0,1-1.47,7.77l-43.4,112.31c-4.25,10.85-10.41,16.13-18.91,16.13s-14.66-5.42-18.91-16.13L115.13,120a20.85,20.85,0,0,1-1.47-7.77A18.09,18.09,0,0,1,120,98.12a21.23,21.23,0,0,1,14.66-5.72C143.42,92.4,149.43,96.8,153,105.6Z"/><path class="cls-2" d="M300.45,51.94v173a19.21,19.21,0,0,1-5.72,14.51A20.25,20.25,0,0,1,280.07,245,19.06,19.06,0,0,1,260,224.94v-173a19.06,19.06,0,0,1,20.09-20.09C293.7,31.85,300.45,38.59,300.45,51.94Z"/><path class="cls-2" d="M453.22,146.21,415,183.6c-4.4,4.25-9.09,6.3-14.08,6.3a19.46,19.46,0,0,1-14.51-6.3,20.42,20.42,0,0,1-6.16-14.66q0-7.48,6.6-14.08l21.55-21.26a46.23,46.23,0,0,0-7.77-.59,35.19,35.19,0,0,0-25.51,10.41,34.62,34.62,0,0,0-10.41,25.51,35.77,35.77,0,0,0,10.41,25.66,34.53,34.53,0,0,0,25.51,10.56h26.68a19.06,19.06,0,0,1,20.09,20.09,20.25,20.25,0,0,1-5.57,14.66,19.21,19.21,0,0,1-14.51,5.72H400.44c-21.55,0-39.73-7.33-54.39-22.14s-22-33-22-54.54,7.33-39.73,22-54.39,32.84-22,54.39-22a74.77,74.77,0,0,1,55.42,23.31,19.91,19.91,0,0,1,6,13.78C461.87,136.39,458.94,141.81,453.22,146.21Z"/></g></g></svg>