<svg xmlns="http://www.w3.org/2000/svg" viewBox="0 0 554.89 118.53"><defs><style>.cls-1{font-size:8px;fill:#656563;font-family:Raleway-Bold, Raleway;font-weight:700;}.cls-2{letter-spacing:1.88em;}.cls-3{letter-spacing:2.37em;}.cls-4{letter-spacing:-0.02em;}.cls-5{letter-spacing:1.82em;}.cls-6{letter-spacing:1.51em;}.cls-7{letter-spacing:-0.03em;}.cls-8{letter-spacing:1.73em;}.cls-9{letter-spacing:1.73em;}.cls-10{letter-spacing:1.76em;}.cls-11{letter-spacing:1.62em;}.cls-12{letter-spacing:1.61em;}.cls-13{fill:none;stroke:#656563;stroke-miterlimit:10;stroke-width:0.5px;}.cls-14{fill:#e6007e;}.cls-15{fill:#00a5a3;}.cls-16{fill:#38bdea;}.cls-17{font-size:6px;fill:#323232;font-family:Raleway, Raleway;}.cls-18{letter-spacing:0.01em;}.cls-19{letter-spacing:0em;}.cls-20{letter-spacing:0.02em;}.cls-21{letter-spacing:0em;}</style></defs><title>bar-chart-large</title><g id="Layer_2" data-name="Layer 2"><g id="Graph_Boxes" data-name="Graph Boxes"><text class="cls-1" transform="translate(23.66 116.7)">J<tspan class="cls-2" x="3.93" y="0">	</tspan><tspan class="cls-3" x="20.91" y="0">	</tspan><tspan class="cls-4" x="41.83" y="0">F</tspan><tspan class="cls-5" x="46.24" y="0">	</tspan><tspan class="cls-3" x="62.74" y="0">	</tspan><tspan x="83.65" y="0">M</tspan><tspan class="cls-6" x="90.57" y="0">	</tspan><tspan class="cls-3" x="104.57" y="0">	</tspan><tspan class="cls-7" x="125.48" y="0">A</tspan><tspan class="cls-8" x="130.61" y="0">	</tspan><tspan class="cls-3" x="146.39" y="0">	</tspan><tspan x="167.3" y="0">M</tspan><tspan class="cls-6" x="174.22" y="0">	</tspan><tspan class="cls-3" x="188.22" y="0">	</tspan><tspan x="209.13" y="0">J</tspan><tspan class="cls-2" x="213.06" y="0">	</tspan><tspan class="cls-3" x="230.04" y="0">	</tspan><tspan x="250.96" y="0">J</tspan><tspan class="cls-2" x="254.88" y="0">	</tspan><tspan class="cls-3" x="271.87" y="0">	</tspan><tspan class="cls-7" x="292.78" y="0">A</tspan><tspan class="cls-9" x="297.91" y="0">	</tspan><tspan class="cls-3" x="313.7" y="0">	</tspan><tspan x="334.61" y="0">S</tspan><tspan class="cls-10" x="339.51" y="0">	</tspan><tspan class="cls-3" x="355.52" y="0">	</tspan><tspan x="376.43" y="0">O</tspan><tspan class="cls-11" x="382.48" y="0">	</tspan><tspan class="cls-3" x="397.35" y="0">	</tspan><tspan x="418.26" y="0">N</tspan><tspan class="cls-12" x="424.36" y="0">	</tspan><tspan class="cls-3" x="439.17" y="0">	</tspan><tspan x="460.09" y="0">D</tspan></text><line class="cls-13" x1="0.25" y1="103.48" x2="504.52" y2="103.48"/><line class="cls-13" x1="0.25" y1="103.48" x2="0.25" y2="8.78"/><rect class="cls-14" x="9.25" y="56" width="8.4" height="46.82"/><rect class="cls-15" x="21.65" y="48.23" width="8.4" height="54.59"/><rect class="cls-16" x="34.05" y="19.1" width="8.4" height="83.72"/><rect class="cls-14" x="51.25" y="56" width="8.4" height="46.82"/><rect class="cls-15" x="63.65" y="5.89" width="8.4" height="96.93"/><rect class="cls-16" x="76.05" y="70.83" width="8.4" height="31.99"/><rect class="cls-14" x="93.25" y="76.63" width="8.4" height="26.19"/><rect class="cls-15" x="105.65" y="72.29" width="8.4" height="30.53"/><rect class="cls-16" x="118.05" y="56" width="8.4" height="46.82"/><rect class="cls-14" x="135.25" y="39.32" width="8.4" height="63.51"/><rect class="cls-15" x="147.65" y="89.73" width="8.4" height="13.09"/><rect class="cls-16" x="160.05" y="83.9" width="8.4" height="18.92"/><rect class="cls-14" x="177.25" y="96.95" width="8.4" height="5.88"/><rect class="cls-15" x="189.65" y="95.97" width="8.4" height="6.85"/><rect class="cls-16" x="202.05" y="92.32" width="8.4" height="10.51"/><rect class="cls-14" x="219.25" y="82.41" width="8.4" height="20.42"/><rect class="cls-15" x="231.65" y="79.02" width="8.4" height="23.81"/><rect class="cls-16" x="244.05" y="66.32" width="8.4" height="36.51"/><rect class="cls-14" x="261.25" y="12.63" width="8.4" height="90.19"/><rect class="cls-15" x="273.65" y="87.56" width="8.4" height="15.27"/><rect class="cls-16" x="286.05" y="83.9" width="8.4" height="18.92"/><rect class="cls-14" x="303.25" y="56" width="8.4" height="46.82"/><rect class="cls-15" x="315.65" y="66.32" width="8.4" height="36.51"/><rect class="cls-16" x="328.05" y="86.83" width="8.4" height="15.99"/><rect class="cls-14" x="345.25" y="76.51" width="8.4" height="26.32"/><rect class="cls-15" x="357.65" y="87.56" width="8.4" height="15.27"/><rect class="cls-16" x="370.05" width="8.4" height="102.82"/><rect class="cls-14" x="387.25" y="36.48" width="8.4" height="66.34"/><rect class="cls-15" x="399.65" y="25.48" width="8.4" height="77.35"/><rect class="cls-16" x="412.05" y="73.29" width="8.4" height="29.53"/><rect class="cls-14" x="429.25" y="96.28" width="8.4" height="6.55"/><rect class="cls-15" x="441.65" y="89.67" width="8.4" height="13.16"/><rect class="cls-16" x="454.05" y="82.41" width="8.4" height="20.42"/><rect class="cls-14" x="471.25" y="69.65" width="8.4" height="33.17"/><rect class="cls-15" x="483.65" y="86.24" width="8.4" height="16.59"/><rect class="cls-16" x="496.05" y="19.1" width="8.4" height="83.72"/><rect class="cls-14" x="522.94" y="33.82" width="8.5" height="8.5"/><rect class="cls-15" x="522.94" y="46.27" width="8.5" height="8.5"/><rect class="cls-16" x="522.94" y="59.28" width="8.5" height="8.5"/><text class="cls-17" transform="translate(536.73 40.66)"><tspan class="cls-18">M</tspan><tspan class="cls-19" x="4.86" y="0">a</tspan><tspan x="7.73" y="0">ths</tspan><tspan x="0" y="12">English</tspan><tspan class="cls-20"><tspan x="0" y="24">O</tspan><tspan class="cls-21" x="4.24" y="24">ther</tspan></tspan></text></g></g></svg>