<svg xmlns="http://www.w3.org/2000/svg" viewBox="0 0 320.37 319.99"><defs><style>.cls-1{fill:#e6007e;}.cls-2{fill:#c9c9c9;}.cls-3{fill:none;}.cls-4{font-size:72px;font-family:MyriadPro-Bold, Myriad Pro;font-weight:700;}</style></defs><title>donut4</title><g id="Layer_2" data-name="Layer 2"><g id="Layer_1-2" data-name="Layer 1"><path class="cls-1" d="M48.51,123.88A122.15,122.15,0,0,1,159.39,43.57V0c-70,1.49-129,44.4-152.08,110.49Z"/><path class="cls-1" d="M66.09,290.37l25.58-35.2A123,123,0,0,1,49,123.17L7.37,109.64h0C-13.06,177.38,9.75,247.57,66.09,290.37Z"/><path class="cls-1" d="M91.55,254.49,66,289.66C94.56,309.51,127.33,320,161,320s66.44-10.47,95-30.32l-25.55-35.17a122.94,122.94,0,0,1-138.92,0Z"/><path class="cls-1" d="M313.07,111.45l-41.2,13.39a121.66,121.66,0,0,1-42.19,130.58L255,290.24C310.72,247.9,333.28,178.47,313.07,111.45Z"/><path class="cls-2" d="M158.67,0V44a123.46,123.46,0,0,1,112.09,81.18l41.65-13.53C289.11,44.88,229.4,1.5,158.67,0Z"/><line class="cls-3" x1="160.38" y1="165.68" x2="160.38" y2="165.68"/><text class="cls-4" transform="translate(102.67 183.03)">77%</text></g></g></svg>