<svg xmlns="http://www.w3.org/2000/svg" viewBox="0 0 321.35 357.29"><defs><style>.cls-1{fill:#e6007e;}.cls-2{fill:#7971ae;}.cls-3{fill:#39c;}.cls-4{fill:none;}.cls-5{font-size:14px;font-family:MyriadPro-Regular, Myriad Pro;}.cls-6{fill:#fff;}</style></defs><title>donut-levels</title><g id="Layer_2" data-name="Layer 2"><g id="Layer_1-2" data-name="Layer 1"><path class="cls-1" d="M48.51,123.89A122.15,122.15,0,0,1,159.39,43.57V0c-70,1.49-129,44.4-152.08,110.5Z"/><path class="cls-1" d="M66.09,290.38l25.58-35.2A123,123,0,0,1,49,123.18L7.37,109.64h0C-13.06,177.39,9.75,247.58,66.09,290.38Z"/><path class="cls-2" d="M94.55,256.5,69,291.67C97.56,311.53,130.33,322,164,322s66.44-10.47,95-30.33L233.46,256.5a122.93,122.93,0,0,1-138.92,0Z"/><path class="cls-3" d="M313.07,114.61,271.87,128a108,108,0,0,1,5,32.37c0,39.07-12.49,71.88-41.16,94.21L261,289.41C316.72,247.07,333.28,181.63,313.07,114.61Z"/><path class="cls-1" d="M158.67,0V43c51.58,1.57,95.29,36,112.09,82.19L312.4,111.7C289.11,44.88,229.4,1.5,158.67,0Z"/><line class="cls-4" x1="160.38" y1="165.68" x2="160.38" y2="165.68"/><rect class="cls-2" x="46.44" y="341.54" width="15.75" height="15.75"/><text class="cls-5" transform="translate(67.44 353.79)">Label 1</text><rect class="cls-1" x="132.5" y="341.54" width="15.75" height="15.75"/><text class="cls-5" transform="translate(153.38 353.79)">Label 2</text><rect class="cls-6" x="216.43" y="341.54" width="15.75" height="15.75"/><text class="cls-5" transform="translate(241.43 353.79)">Label 3</text><rect class="cls-3" x="220.15" y="341.54" width="15.75" height="15.75"/></g></g></svg>