<svg xmlns="http://www.w3.org/2000/svg" viewBox="0 0 467.98 278.01"><defs><style>.cls-1{fill:#e6007e;}</style></defs><title>ico-quizzes-progress</title><g id="Layer_2" data-name="Layer 2"><g id="Layer_1-2" data-name="Layer 1"><path class="cls-1" d="M455.88,12.1a41.32,41.32,0,0,0-68.71,41.37l-94.11,90.71a41.49,41.49,0,0,0-31.08-.09L223.89,106a41.3,41.3,0,1,0-78.7,0L53.86,197.34a41.32,41.32,0,1,0,26.82,26.82L172,132.83a41.44,41.44,0,0,0,25.05,0L237.21,173a41.29,41.29,0,1,0,80.41.21l96.12-92.64A41.3,41.3,0,0,0,455.88,12.1Z"/></g></g></svg>