<svg xmlns="http://www.w3.org/2000/svg" viewBox="0 0 160.86 159.98"><defs><style>.cls-1{fill:#e6007e;}</style></defs><title>ico-users</title><g id="Layer_2" data-name="Layer 2"><g id="Layer_1-2" data-name="Layer 1"><path class="cls-1" d="M148.19,125.68S110,115.9,104.56,105.26c-2.45-4.87,0-11.1,2.43-15.39q1.69-2.25,3.28-4.78v0c6.39-10.13,11.26-23.5,11.75-40C122.76,20.23,103.43.06,80.49,0h-.1C57.44.06,38.11,20.23,38.86,45.06c.5,16.52,5.37,29.89,11.74,40h0v0q1.59,2.53,3.28,4.78c2.45,4.29,4.89,10.53,2.42,15.39-5.37,10.64-43.63,20.41-43.63,20.41A18.47,18.47,0,0,0,0,143.19V160H160.86v-16.8A18.45,18.45,0,0,0,148.19,125.68Z"/></g></g></svg>