<svg xmlns="http://www.w3.org/2000/svg" viewBox="0 0 46.01 42.96"><defs><style>.cls-1{fill:#5580c0;}.cls-2,.cls-3{fill:#fff;}.cls-3{font-size:17.73px;font-family:Raleway-Bold, Raleway;font-weight:700;}</style></defs><title>ico-questions</title><g id="Layer_2" data-name="Layer 2"><g id="Dashboard_5_Buttons_copy" data-name="Dashboard 5 Buttons copy"><path class="cls-1" d="M0,23a23,23,0,1,1,46,0"/><path class="cls-1" d="M23,41.78A18.93,18.93,0,1,1,41.93,22.86,18.95,18.95,0,0,1,23,41.78Z"/><path class="cls-2" d="M23,5.11A17.74,17.74,0,1,1,5.26,22.86,17.76,17.76,0,0,1,23,5.11m0-2.36A20.11,20.11,0,1,0,43.11,22.86,20.11,20.11,0,0,0,23,2.75Z"/><text class="cls-3" transform="translate(10.42 27.83)">?</text><text class="cls-3" transform="translate(19.29 27.83)">?</text><text class="cls-3" transform="translate(28.15 27.83)">?</text></g></g></svg>