<svg xmlns="http://www.w3.org/2000/svg" viewBox="0 0 50.17 23.76"><defs><style>.cls-1{fill:#656563;}.cls-2,.cls-3{fill:#fff;}.cls-3{stroke:#656563;stroke-miterlimit:10;stroke-width:0.18px;}.cls-4{font-size:4.88px;fill:#323232;font-family:Raleway-Bold, Raleway;font-weight:700;letter-spacing:-0.01em;}.cls-5{letter-spacing:0em;}.cls-6{letter-spacing:-0.07em;}.cls-7{letter-spacing:-0.03em;}.cls-8{letter-spacing:-0.03em;}</style></defs><title>ico-contact</title><g id="Layer_2" data-name="Layer 2"><g id="Top"><path class="cls-1" d="M0,11.88" transform="translate(-1.71)"/><path class="cls-1" d="M13.59,25.47" transform="translate(-1.71)"/><path class="cls-1" d="M27.19,11.88" transform="translate(-1.71)"/><path class="cls-1" d="M13.59,23A11.09,11.09,0,1,1,24.69,11.88,11.1,11.1,0,0,1,13.59,23Z" transform="translate(-1.71)"/><path class="cls-2" d="M13.59,1.58a10.3,10.3,0,1,1-10.3,10.3,10.31,10.31,0,0,1,10.3-10.3m0-1.58A11.88,11.88,0,1,0,25.47,11.88,11.88,11.88,0,0,0,13.59,0Z" transform="translate(-1.71)"/><path class="cls-3" d="M16,8.41H11.49L8.56,11.34v.23l.9.9v.68l4.07,4.07a.79.79,0,0,0,.45.23.68.68,0,0,0,.68-.68.79.79,0,0,0-.23-.45l.45.45a.79.79,0,0,0,.45.23.68.68,0,0,0,.68-.68.79.79,0,0,0-.23-.45l.23.23a.79.79,0,0,0,.45.23.68.68,0,0,0,.68-.68.79.79,0,0,0-.23-.45l-.45-.45a.79.79,0,0,0,.45.23.68.68,0,0,0,.68-.68.79.79,0,0,0-.23-.45l-.23-.23h.23l.9-.9v-.45l.68-.68v-.23Z" transform="translate(-1.71)"/><path class="cls-3" d="M10.59,14.51a.79.79,0,0,1-.45.23.68.68,0,0,1-.68-.68.79.79,0,0,1,.23-.45Z" transform="translate(-1.71)"/><path class="cls-3" d="M11.49,15.41a.79.79,0,0,1-.45.23.68.68,0,0,1-.68-.68.79.79,0,0,1,.23-.45Z" transform="translate(-1.71)"/><path class="cls-3" d="M12.4,16.31a.79.79,0,0,1-.45.23.68.68,0,0,1-.68-.68.79.79,0,0,1,.23-.45Z" transform="translate(-1.71)"/><path class="cls-3" d="M13.3,17.22a.79.79,0,0,1-.45.23.68.68,0,0,1-.68-.68.79.79,0,0,1,.23-.45Z" transform="translate(-1.71)"/><line class="cls-3" x1="9.78" y1="8.41" x2="14.3" y2="8.41"/><polyline class="cls-3" points="17.23 11.57 16.56 12.25 16.56 12.7 15.65 13.6"/><line class="cls-3" x1="12.72" y1="12.7" x2="15.2" y2="15.18"/><path class="cls-3" d="M17.36,13.83a.79.79,0,0,1,.23.45.68.68,0,0,1-.68.68.79.79,0,0,1-.45-.23" transform="translate(-1.71)"/><path class="cls-3" d="M16.91,15.18a.79.79,0,0,1,.23.45.68.68,0,0,1-.68.68.79.79,0,0,1-.45-.23L13.52,13.6" transform="translate(-1.71)"/><path class="cls-3" d="M15.78,15.86a.79.79,0,0,1,.23.45.68.68,0,0,1-.68.68.79.79,0,0,1-.45-.23l-2.26-2.26" transform="translate(-1.71)"/><path class="cls-3" d="M14.43,16.31a.79.79,0,0,1,.23.45.68.68,0,0,1-.68.68.79.79,0,0,1-.45-.23L9.46,13.15v-.68l-.9-.9" transform="translate(-1.71)"/><path class="cls-3" d="M10.59,14.51a.79.79,0,0,1-.45.23.68.68,0,0,1-.68-.68.79.79,0,0,1,.23-.45" transform="translate(-1.71)"/><path class="cls-3" d="M11.49,15.41a.79.79,0,0,1-.45.23.68.68,0,0,1-.68-.68.79.79,0,0,1,.23-.45" transform="translate(-1.71)"/><path class="cls-3" d="M12.4,16.31a.79.79,0,0,1-.45.23.68.68,0,0,1-.68-.68.79.79,0,0,1,.23-.45" transform="translate(-1.71)"/><path class="cls-3" d="M13.3,17.22a.79.79,0,0,1-.45.23.68.68,0,0,1-.68-.68.79.79,0,0,1,.23-.45" transform="translate(-1.71)"/><path class="cls-3" d="M17.36,13.83l-2.94-2.94V9.54h-.68l-1.13,1.13a.79.79,0,0,1-.45.23.68.68,0,0,1-.68-.68.79.79,0,0,1,.23-.45L13,8.5" transform="translate(-1.71)"/><polyline class="cls-3" points="19.04 10.44 17.69 11.8 13.62 7.73 14.98 6.38"/><path class="cls-3" d="M18.95,10" transform="translate(-1.71)"/><path class="cls-3" d="M12.85,14.28" transform="translate(-1.71)"/><path class="cls-3" d="M12.4,14.73" transform="translate(-1.71)"/><rect class="cls-3" x="6.22" y="8.18" width="6.09" height="1.98" transform="translate(-5.49 9.24) rotate(-45)"/><rect class="cls-3" x="16.93" y="6.13" width="1.98" height="6.09" transform="translate(-2.95 15.36) rotate(-45)"/><path class="cls-3" d="M19.46,10.38a.33.33,0,1,0,.33.33.33.33,0,0,0-.33-.33Z" transform="translate(-1.71)"/><path class="cls-3" d="M7.76,10.38a.33.33,0,1,0,.33.33.33.33,0,0,0-.33-.33Z" transform="translate(-1.71)"/><text class="cls-4" transform="translate(27.33 12.14)">C<tspan class="cls-5" x="3.32" y="0">ON</tspan><tspan class="cls-6" x="10.73" y="0">T</tspan><tspan class="cls-7" x="13.41" y="0">A</tspan><tspan x="16.57" y="0">C</tspan><tspan class="cls-8" x="19.88" y="0">T</tspan></text></g></g></svg>