<svg xmlns="http://www.w3.org/2000/svg" viewBox="0 0 48.45 25.47"><defs><style>.cls-1{fill:#656563;}.cls-2{fill:#fff;}.cls-3{font-size:4.88px;fill:#323232;font-family:Raleway-Bold, Raleway;font-weight:700;}</style></defs><title>ico-profile</title><g id="Layer_2" data-name="Layer 2"><g id="Top"><path class="cls-1" d="M0,13.59a13.59,13.59,0,0,1,27.19,0"/><path class="cls-1" d="M13.59,24.68A11.09,11.09,0,1,1,24.69,13.59,11.1,11.1,0,0,1,13.59,24.68Z"/><path class="cls-2" d="M13.59,3.29a10.3,10.3,0,1,1-10.3,10.3,10.31,10.31,0,0,1,10.3-10.3m0-1.58A11.88,11.88,0,1,0,25.47,13.59,11.88,11.88,0,0,0,13.59,1.71Z"/><path class="cls-2" d="M18.12,13.8a.45.45,0,0,1-.13-.32V12a.45.45,0,0,1,.13-.32l1.07-1.08a.45.45,0,0,0,.07-.54l-.52-.9a.45.45,0,0,0-.5-.21l-1.47.39a.45.45,0,0,1-.34,0l-1.29-.75a.45.45,0,0,1-.21-.27l-.39-1.47a.45.45,0,0,0-.43-.33h-1a.45.45,0,0,0-.43.33l-.39,1.47a.45.45,0,0,1-.21.27l-1.29.75a.45.45,0,0,1-.34,0L8.94,9a.45.45,0,0,0-.5.21l-.52.9A.45.45,0,0,0,8,10.6l1.07,1.08A.45.45,0,0,1,9.2,12v1.49a.45.45,0,0,1-.13.32L8,14.87a.45.45,0,0,0-.07.54l.52.9a.45.45,0,0,0,.5.21l1.47-.39a.45.45,0,0,1,.34,0l1.29.75a.45.45,0,0,1,.21.27l.39,1.47a.45.45,0,0,0,.43.33h1a.45.45,0,0,0,.43-.33l.39-1.47a.45.45,0,0,1,.21-.27l1.29-.75a.45.45,0,0,1,.34,0l1.47.39a.45.45,0,0,0,.5-.21l.52-.9a.45.45,0,0,0-.07-.54Zm-4.53,1.49a2.55,2.55,0,1,1,2.55-2.55A2.55,2.55,0,0,1,13.59,15.29Z"/><text class="cls-3" transform="translate(28.48 12.57)">PROFILE</text></g></g></svg>