<svg xmlns="http://www.w3.org/2000/svg" viewBox="0 0 16.76 16.67"><defs><style>.cls-1,.cls-2,.cls-3{fill:none;stroke:#656563;stroke-miterlimit:10;}.cls-1{stroke-width:1.26px;}.cls-2{stroke-width:1.08px;}.cls-3{stroke-width:0.66px;}</style></defs><title>ico-pen</title><g id="Layer_2" data-name="Layer 2"><g id="Buttons"><path class="cls-1" d="M4.33,15.41,1.2,16a.52.52,0,0,1-.57-.59l.71-3a.52.52,0,0,1,.15-.3L12.83.78a.52.52,0,0,1,.74,0L16,3.19a.52.52,0,0,1,0,.74L4.65,15.26A.52.52,0,0,1,4.33,15.41Z"/><line class="cls-2" x1="10.62" y1="2.99" x2="13.77" y2="6.14"/><polygon class="cls-3" points="1.23 14.28 2.43 15.48 1.05 15.6 1.23 14.28"/><line class="cls-2" x1="1.37" y1="12.24" x2="4.51" y2="15.39"/></g></g></svg>