<svg xmlns="http://www.w3.org/2000/svg" viewBox="0 0 280.49 159.98"><defs><style>.cls-1{fill:#e6007e;}</style></defs><title>ico-progress</title><g id="Layer_2" data-name="Layer 2"><g id="Layer_1-2" data-name="Layer 1"><path class="cls-1" d="M273.24,7a25.5,25.5,0,0,0-35,0,23.12,23.12,0,0,0-6.15,23.81L175.65,83A25.83,25.83,0,0,0,157,82.92L134.19,61a23.09,23.09,0,0,0-6.07-24,25.5,25.5,0,0,0-35,0A23.09,23.09,0,0,0,87,61L32.28,113.56a25.49,25.49,0,0,0-25,5.83,23.11,23.11,0,0,0,0,33.63,25.5,25.5,0,0,0,35,0,23.1,23.1,0,0,0,6.07-24L103.1,76.44a25.82,25.82,0,0,0,15,0l24.06,23.1a23.11,23.11,0,0,0,6.57,22.26,25.5,25.5,0,0,0,35,0,23.11,23.11,0,0,0,6.6-22.14L248,46.35a25.47,25.47,0,0,0,25.24-5.76A23.11,23.11,0,0,0,273.24,7Z"/></g></g></svg>