<svg xmlns="http://www.w3.org/2000/svg" viewBox="0 0 436.56 272.49"><defs><style>.cls-1{fill:#7971ae;}</style></defs><title>ico-competancies</title><g id="Layer_2" data-name="Layer 2"><g id="Layer_1-2" data-name="Layer 1"><path class="cls-1" d="M7.44,0A7.48,7.48,0,0,0,0,7.51V265a7.46,7.46,0,0,0,7.44,7.51H429.12a7.46,7.46,0,0,0,7.44-7.51V7.51A7.46,7.46,0,0,0,429.12,0H7.44Zm7.51,14.95H421.62V257.54H14.95V14.95Zm116.87,23a12.58,12.58,0,0,0-12.44,11,12.58,12.58,0,0,0-23.06,9.54,12.65,12.65,0,0,0-16.57,1.08A12.51,12.51,0,0,0,78.66,76a12.57,12.57,0,0,0-9.47,23.06,12.58,12.58,0,0,0,0,25,12.57,12.57,0,0,0,9.47,23.06,12.59,12.59,0,0,0,17.65,17.65,12.57,12.57,0,0,0,23.06,9.47,12.58,12.58,0,0,0,25,0,12.57,12.57,0,0,0,23.06-9.47,12.52,12.52,0,0,0,16.5-1.08A12.68,12.68,0,0,0,185,147.1,12.58,12.58,0,0,0,194.5,124a12.58,12.58,0,0,0,0-25A12.58,12.58,0,0,0,185,76a12.54,12.54,0,0,0-17.58-17.58,12.73,12.73,0,0,0-7.44-14.95,12.55,12.55,0,0,0-15.62,5.41,12.65,12.65,0,0,0-12.51-11ZM264.51,53.56a7.47,7.47,0,0,0,0,14.95h128a7.47,7.47,0,1,0,0-14.95ZM131.81,71.69a39.87,39.87,0,1,1-39.9,39.9,39.9,39.9,0,0,1,39.9-39.9Zm132.69,57.08a7.47,7.47,0,0,0,0,14.95h128a7.47,7.47,0,1,0,0-14.95Zm-69.19,40.92A18.11,18.11,0,0,1,193,172.6a25.26,25.26,0,0,1-15.49,7.24,25.05,25.05,0,0,1-12.65,11.5,31.66,31.66,0,0,1-4.67,1.49l24.75,41.73,4.67-33.34,31.52,11.9-25.77-43.42Zm-127.08.06L42.54,213.1l31.52-11.9,4.67,33.34,24.75-41.73a33,33,0,0,1-4.67-1.49,25.21,25.21,0,0,1-12.65-11.5,25.56,25.56,0,0,1-15.42-7.17c-.9-.94-1.67-1.9-2.51-2.91ZM264.51,204a7.47,7.47,0,0,0,0,14.95h128a7.47,7.47,0,1,0,0-14.95Z"/></g></g></svg>