<svg xmlns="http://www.w3.org/2000/svg" viewBox="0 0 83.05 103.88"><defs><style>.cls-1{fill:#00a5a3;}.cls-2{fill:#fff;}.cls-3{font-size:9.76px;fill:#323232;font-family:Raleway-Bold, Raleway;font-weight:700;}.cls-4{letter-spacing:-0.01em;}.cls-5{letter-spacing:-0.01em;}.cls-6{letter-spacing:-0.03em;}.cls-7,.cls-8,.cls-9{fill:none;stroke:#fff;}.cls-7{stroke-linecap:round;}.cls-7,.cls-8{stroke-width:1.4px;}.cls-9{stroke-miterlimit:10;stroke-width:0.72px;}</style></defs><title>icon-assessment</title><g id="Layer_2" data-name="Layer 2"><g id="Top"><path class="cls-1" d="M41.53,101.44A39.08,39.08,0,1,1,80.61,62.35,39.13,39.13,0,0,1,41.53,101.44Z"/><path class="cls-2" d="M41.53,25.71A36.64,36.64,0,1,1,4.88,62.35,36.69,36.69,0,0,1,41.53,25.71m0-4.88A41.53,41.53,0,1,0,83.05,62.35,41.53,41.53,0,0,0,41.53,20.83Z"/><text class="cls-3" transform="translate(9.84 8.35)"><tspan class="cls-4">A</tspan><tspan x="6.46" y="0">SS</tspan><tspan class="cls-5" x="18.43" y="0">E</tspan><tspan x="24.15" y="0">SSMEN</tspan><tspan class="cls-6" x="57.88" y="0">T</tspan></text><path class="cls-7" d="M40.5,75.35H31a2,2,0,0,1-1.95-1.95v-25A2,2,0,0,1,31,46.46H50a2,2,0,0,1,1.95,1.95V62"/><rect class="cls-8" x="36.24" y="43.47" width="8.52" height="6.44" rx="0.56" ry="0.56"/><line class="cls-7" x1="34.8" y1="54.93" x2="46.19" y2="54.93"/><line class="cls-7" x1="34.8" y1="60.18" x2="46.19" y2="60.18"/><circle class="cls-9" cx="48.62" cy="70.67" r="7.91"/><path class="cls-2" d="M48.62,63.87a6.79,6.79,0,1,0,6.79,6.79A6.79,6.79,0,0,0,48.62,63.87Zm4.21,5.92-5.35,5.35-3.07-3.07a1.33,1.33,0,0,1,1.89-1.89l1.19,1.19,3.46-3.46a1.33,1.33,0,1,1,1.89,1.89Z"/></g></g></svg>