<svg xmlns="http://www.w3.org/2000/svg" viewBox="0 0 46.74 23.76"><defs><style>.cls-1{fill:#656563;}.cls-2{fill:#fff;}.cls-3{font-size:4.88px;fill:#323232;font-family:Raleway-Bold, Raleway;font-weight:700;}</style></defs><title>ico-profile</title><g id="Layer_2" data-name="Layer 2"><g id="Top"><path class="cls-1" d="M11.88,23A11.09,11.09,0,1,1,23,11.88,11.1,11.1,0,0,1,11.88,23Z"/><path class="cls-2" d="M11.88,1.58a10.3,10.3,0,1,1-10.3,10.3,10.31,10.31,0,0,1,10.3-10.3m0-1.58A11.88,11.88,0,1,0,23.76,11.88,11.88,11.88,0,0,0,11.88,0Z"/><path class="cls-2" d="M16.41,12.09a.45.45,0,0,1-.13-.32V10.28a.45.45,0,0,1,.13-.32l1.07-1.08a.45.45,0,0,0,.07-.54L17,7.45a.45.45,0,0,0-.5-.21l-1.47.39a.45.45,0,0,1-.34,0l-1.29-.75a.45.45,0,0,1-.21-.27l-.39-1.47a.45.45,0,0,0-.43-.33h-1a.45.45,0,0,0-.43.33l-.39,1.47a.45.45,0,0,1-.21.27L9,7.59a.45.45,0,0,1-.34,0L7.23,7.25a.45.45,0,0,0-.5.21l-.52.9a.45.45,0,0,0,.07.54L7.36,10a.45.45,0,0,1,.13.32v1.49a.45.45,0,0,1-.13.32L6.28,13.16a.45.45,0,0,0-.07.54l.52.9a.45.45,0,0,0,.5.21l1.47-.39a.45.45,0,0,1,.34,0l1.29.75a.45.45,0,0,1,.21.27l.39,1.47a.45.45,0,0,0,.43.33h1a.45.45,0,0,0,.43-.33l.39-1.47a.45.45,0,0,1,.21-.27l1.29-.75a.45.45,0,0,1,.34,0l1.47.39a.45.45,0,0,0,.5-.21l.52-.9a.45.45,0,0,0-.07-.54Zm-4.53,1.49A2.55,2.55,0,1,1,14.43,11,2.55,2.55,0,0,1,11.88,13.58Z"/><text class="cls-3" transform="translate(26.77 10.85)">PROFILE</text></g></g></svg>