<svg xmlns="http://www.w3.org/2000/svg" viewBox="0 0 273.98 272.49"><defs><style>.cls-1{fill:#e6007e;}</style></defs><title>ico-users</title><g id="Layer_2" data-name="Layer 2"><g id="Layer_1-2" data-name="Layer 1"><path class="cls-1" d="M252.41,214.05s-65.13-16.65-74.32-34.77c-4.18-8.29,0-18.91,4.13-26.22q2.87-3.83,5.58-8.13v0c10.88-17.25,19.17-40,20-68.16C209.09,34.45,176.16.1,137.09,0h-.18c-39.07.1-72,34.45-70.73,76.74.85,28.13,9.14,50.91,20,68.16h0l0,0q2.7,4.31,5.58,8.13c4.18,7.3,8.32,17.93,4.11,26.22-9.15,18.12-74.32,34.77-74.32,34.77A31.45,31.45,0,0,0,0,243.88v28.61H274V243.88A31.43,31.43,0,0,0,252.41,214.05Z"/></g></g></svg>