<svg xmlns="http://www.w3.org/2000/svg" viewBox="0 0 46.01 43.11"><defs><style>.cls-1{fill:#e6007e;}.cls-2{fill:#fff;}.cls-3{fill:none;stroke:#fff;stroke-width:0.63px;}</style></defs><title>ico-stacked</title><g id="Layer_2" data-name="Layer 2"><g id="Dashboard_5_Buttons_copy" data-name="Dashboard 5 Buttons copy"><path class="cls-1" d="M46,20.11a23,23,0,1,1-46,0"/><path class="cls-1" d="M23,39A18.93,18.93,0,1,1,41.93,20.11,18.95,18.95,0,0,1,23,39Z"/><path class="cls-2" d="M23,2.36A17.74,17.74,0,1,1,5.26,20.11,17.76,17.76,0,0,1,23,2.36M23,0A20.11,20.11,0,1,0,43.11,20.11,20.11,20.11,0,0,0,23,0Z"/><polygon class="cls-3" points="23.97 20.61 15.53 16.57 22.13 12.56 30.62 16.59 23.97 20.61"/><polyline class="cls-3" points="18.56 18.02 15.53 19.87 23.97 23.9 30.62 19.88 27.57 18.43"/><polyline class="cls-3" points="18.56 21.41 15.53 23.25 23.97 27.28 30.62 23.26 27.57 21.81"/></g></g></svg>