<svg xmlns="http://www.w3.org/2000/svg" viewBox="0 0 51.37 25.47"><defs><style>.cls-1{font-size:4.88px;fill:#323232;font-family:Raleway-Bold, Raleway;font-weight:700;}.cls-2{letter-spacing:-0.01em;}.cls-3{fill:#7971ae;}.cls-4,.cls-5{fill:#fff;}.cls-5{fill-rule:evenodd;}</style></defs><title>ico-reports</title><g id="Layer_2" data-name="Layer 2"><g id="Top"><text class="cls-1" transform="translate(29.24 11.9)">REPO<tspan class="cls-2" x="12.91" y="0">R</tspan><tspan x="16.11" y="0">TS</tspan></text><path class="cls-3" d="M27.19,11.88A13.59,13.59,0,0,1,0,11.88"/><path class="cls-3" d="M13.59,23A11.09,11.09,0,1,1,24.68,11.88,11.11,11.11,0,0,1,13.59,23Z"/><path class="cls-4" d="M13.59,1.58a10.3,10.3,0,1,1-10.3,10.3,10.31,10.31,0,0,1,10.3-10.3m0-1.58A11.88,11.88,0,1,0,25.47,11.88,11.88,11.88,0,0,0,13.59,0Z"/><path class="cls-5" d="M19,16.89H9.68a.31.31,0,0,1-.31-.31V7.23a.31.31,0,1,1,.62,0v9h4.36V16h.31v.31h2.8v-.93h.31v.93H19a.31.31,0,0,1,0,.62Zm-1.56-6.23h.31v.93h-.31v-.93Zm.31,4h-.31v-.94h.31v.94Zm-.31-2.49h.31v.93h-.31v-.93Zm-2.8,3.11h-.31V14.4h.31v.93Zm-.31-2.49h.31v.93h-.31v-.93ZM11.55,16h-.31V15h.31V16Zm6.23-6.55V10h-.31v-.6h0a.64.64,0,0,1-.34-.1l-2,2.3a.63.63,0,0,1-1,.76l-1.94.77a.78.78,0,0,1-.61.59v.65h-.31v-.63a.78.78,0,1,1,.82-1.18l1.82-.72a.64.64,0,0,1,.63-.59.63.63,0,0,1,.28.07L16.87,9a.65.65,0,0,1,0-.21.63.63,0,0,1,0-.13s0,0,0,0a.79.79,0,1,1,.94.77Zm-6.19,3.45a.24.24,0,0,0-.2-.1.24.24,0,0,0,0,.49.24.24,0,0,0,.2-.1v-.28Zm6-4.47a.24.24,0,1,0,.24.24.24.24,0,0,0-.24-.24Z"/></g></g></svg>