<svg xmlns="http://www.w3.org/2000/svg" viewBox="0 0 158.03 158.03"><defs><style>.cls-1{fill:#7971ae;}</style></defs><title>ico-comp</title><g id="Layer_2" data-name="Layer 2"><g id="Layer_1-2" data-name="Layer 1"><path class="cls-1" d="M79,0,68.73,7,56.5,4.48,49.67,14.93l-12.23,2.3-2.3,12.23L24.69,36.29l2.53,12.23-7,10.28,7,10.28L24.69,81.31l10.45,6.83,2.3,12.23,12.23,2.3,6.83,10.45,12.23-2.53,10.28,7,10.28-7,12.23,2.53,6.83-10.45,12.23-2.3,2.3-12.23,10.45-6.83-2.53-12.23,7-10.28-7-10.28,2.53-12.23-10.45-6.83-2.3-12.23-12.23-2.3L101.52,4.48,89.29,7ZM30.89,89.75,0,137.81l27.56-5.51L34.91,158l25.15-41.92-2.81.57a3.77,3.77,0,0,1-3.85-1.55l-6-9.13-10.68-2.07A3.77,3.77,0,0,1,33.82,101L31.75,90.33l-.86-.57Zm96.24,0-.86.57L124.2,101a3.77,3.77,0,0,1-2.93,2.93L110.6,106l-6,9.13a3.77,3.77,0,0,1-3.85,1.55L98,116.11,123.11,158l7.35-25.73L158,137.81,127.13,89.75Z"/></g></g></svg>