<svg xmlns="http://www.w3.org/2000/svg" viewBox="0 0 46.01 43.23"><defs><style>.cls-1{fill:#00a5a3;}.cls-2{fill:#fff;}.cls-3,.cls-4,.cls-5{fill:none;stroke:#fff;}.cls-3{stroke-linecap:round;}.cls-3,.cls-4{stroke-width:0.68px;}.cls-5{stroke-miterlimit:10;stroke-width:0.35px;}</style></defs><title>ico-clipboard</title><g id="Layer_2" data-name="Layer 2"><g id="Dashboard_5_Buttons_copy" data-name="Dashboard 5 Buttons copy"><path class="cls-1" d="M0,23a23,23,0,1,1,46,0"/><path class="cls-1" d="M23,42A18.93,18.93,0,1,1,41.93,23.12,18.95,18.95,0,0,1,23,42Z"/><path class="cls-2" d="M23,5.38A17.74,17.74,0,1,1,5.26,23.12,17.76,17.76,0,0,1,23,5.38M23,3A20.11,20.11,0,1,0,43.11,23.12,20.11,20.11,0,0,0,23,3Z"/><path class="cls-3" d="M22.5,29.41H17.91a.94.94,0,0,1-.94-.94V16.37a.94.94,0,0,1,.94-.94H27.1a.94.94,0,0,1,.94.94v6.58"/><rect class="cls-4" x="20.44" y="13.97" width="4.12" height="3.12" rx="0.27" ry="0.27"/><line class="cls-3" x1="19.75" y1="19.52" x2="25.26" y2="19.52"/><line class="cls-3" x1="19.75" y1="22.06" x2="25.26" y2="22.06"/><circle class="cls-5" cx="26.44" cy="27.14" r="3.83"/><path class="cls-2" d="M26.44,23.86a3.29,3.29,0,1,0,3.29,3.29A3.29,3.29,0,0,0,26.44,23.86Zm2,2.87-2.59,2.59L24.4,27.83a.65.65,0,1,1,.91-.91l.57.57,1.68-1.68a.65.65,0,0,1,.91.91Z"/></g></g></svg>