<svg xmlns="http://www.w3.org/2000/svg" viewBox="0 0 46.01 43.11"><defs><style>.cls-1{fill:#38bdea;}.cls-2{fill:#fff;}</style></defs><title>ico-man-stars</title><g id="Layer_2" data-name="Layer 2"><g id="Dashboard_5_Buttons_copy" data-name="Dashboard 5 Buttons copy"><path class="cls-1" d="M46,20.11a23,23,0,1,1-46,0"/><path class="cls-1" d="M23,39A18.93,18.93,0,1,1,41.93,20.11,18.95,18.95,0,0,1,23,39Z"/><path class="cls-2" d="M23,2.36A17.74,17.74,0,1,1,5.26,20.11,17.76,17.76,0,0,1,23,2.36M23,0A20.11,20.11,0,1,0,43.11,20.11,20.11,20.11,0,0,0,23,0Z"/><polygon class="cls-2" points="17.04 26.06 17.38 26.74 18.13 26.85 17.59 27.39 17.72 28.14 17.04 27.78 16.36 28.14 16.49 27.39 15.95 26.85 16.7 26.74 17.04 26.06"/><polygon class="cls-2" points="19.92 26.06 20.26 26.74 21.01 26.85 20.47 27.39 20.6 28.14 19.92 27.78 19.25 28.14 19.38 27.39 18.83 26.85 19.58 26.74 19.92 26.06"/><polygon class="cls-2" points="22.89 26.06 23.22 26.74 23.98 26.85 23.43 27.39 23.56 28.14 22.89 27.78 22.21 28.14 22.34 27.39 21.79 26.85 22.55 26.74 22.89 26.06"/><polygon class="cls-2" points="25.68 26.06 26.02 26.74 26.77 26.85 26.23 27.39 26.36 28.14 25.68 27.78 25.01 28.14 25.14 27.39 24.59 26.85 25.34 26.74 25.68 26.06"/><polygon class="cls-2" points="28.56 26.06 28.9 26.74 29.66 26.85 29.11 27.39 29.24 28.14 28.56 27.78 27.89 28.14 28.02 27.39 27.47 26.85 28.23 26.74 28.56 26.06"/><circle class="cls-2" cx="22.89" cy="13.57" r="2.94"/><path class="cls-2" d="M29.84,24.55H27.12l-.61-1.88v1.88h-7.1l.22-1.72-.82,1.72H15.93L17.8,17.9a1.53,1.53,0,0,1,1.47-1.11h1.22l1.41.4a3.81,3.81,0,0,0,2,0l1.62-.42h1a1.53,1.53,0,0,1,1.47,1.11Z"/></g></g></svg>