<svg xmlns="http://www.w3.org/2000/svg" viewBox="0 0 83.05 109.3"><defs><style>.cls-1{fill:#5580c0;}.cls-2,.cls-8,.cls-9{fill:#fff;}.cls-3{font-size:9.76px;fill:#323232;}.cls-3,.cls-8{font-family:Raleway-Bold, Raleway;font-weight:700;}.cls-4{letter-spacing:-0.02em;}.cls-5{letter-spacing:0em;}.cls-6{letter-spacing:0em;}.cls-7{letter-spacing:-0.01em;}.cls-8{font-size:36.62px;}.cls-9{font-size:26.28px;font-family:Raleway-Medium, Raleway;}</style></defs><title>ico-question-bank</title><g id="Layer_2" data-name="Layer 2"><g id="Top"><path class="cls-1" d="M41.53,101.44A39.08,39.08,0,1,1,80.61,62.35,39.13,39.13,0,0,1,41.53,101.44Z"/><path class="cls-2" d="M41.53,25.71A36.64,36.64,0,1,1,4.88,62.35,36.69,36.69,0,0,1,41.53,25.71m0-4.88A41.53,41.53,0,1,0,83.05,62.35,41.53,41.53,0,0,0,41.53,20.83Z"/><text class="cls-3" transform="translate(1.88 8.35)">QU<tspan class="cls-4" x="14.7" y="0">E</tspan><tspan class="cls-5" x="20.42" y="0">S</tspan><tspan x="26.36" y="0">TION </tspan><tspan class="cls-4" x="52.37" y="0">B</tspan><tspan class="cls-6" x="58.86" y="0">AN</tspan><tspan class="cls-7" x="72.87" y="0">K</tspan></text><text class="cls-8" transform="translate(15.55 72.63)">?</text><text class="cls-8" transform="translate(33.85 72.63)">?</text><text class="cls-8" transform="translate(52.15 72.63)">?</text><path class="cls-1" d="M64.54,104.14a10,10,0,1,1,10-10A10,10,0,0,1,64.54,104.14Z"/><path class="cls-2" d="M64.54,84.91a9.21,9.21,0,1,1-9.21,9.21,9.22,9.22,0,0,1,9.21-9.21m0-1.63A10.84,10.84,0,1,0,75.38,94.12,10.84,10.84,0,0,0,64.54,83.28Z"/><text class="cls-9" transform="translate(58.9 103.38)">+</text></g></g></svg>