<svg xmlns="http://www.w3.org/2000/svg" viewBox="0 0 83.05 103.88"><defs><style>.cls-1{fill:#e6007e;}.cls-2{fill:#fff;}.cls-3{font-size:9.76px;fill:#323232;font-family:Raleway-Bold, Raleway;font-weight:700;}.cls-4{letter-spacing:-0.01em;}.cls-5{fill:none;stroke:#fff;stroke-width:1.29px;}</style></defs><title>ico-resource</title><g id="Layer_2" data-name="Layer 2"><g id="Top"><path class="cls-1" d="M41.53,101.44A39.08,39.08,0,1,1,80.61,62.35,39.13,39.13,0,0,1,41.53,101.44Z"/><path class="cls-2" d="M41.53,25.71A36.64,36.64,0,1,1,4.88,62.35,36.69,36.69,0,0,1,41.53,25.71m0-4.88A41.53,41.53,0,1,0,83.05,62.35,41.53,41.53,0,0,0,41.53,20.83Z"/><text class="cls-3" transform="translate(15.54 8.35)">R<tspan class="cls-4" x="6.49" y="0">E</tspan><tspan x="12.22" y="0">SOURCE</tspan></text><polygon class="cls-5" points="43.52 63.38 26.08 55.05 39.73 46.77 57.26 55.08 43.52 63.38"/><polyline class="cls-5" points="32.35 58.05 26.08 61.85 43.52 70.18 57.26 61.88 50.95 58.89"/><polyline class="cls-5" points="32.35 65.03 26.08 68.83 43.52 77.16 57.26 68.86 50.95 65.87"/></g></g></svg>