<svg xmlns="http://www.w3.org/2000/svg" viewBox="0 0 31.9 31.9"><defs><style>.cls-1{fill:#38bdea;}.cls-2{fill:#fff;}.cls-3,.cls-4{fill:none;stroke-miterlimit:10;}.cls-3{stroke:#fff;stroke-width:0.71px;}.cls-4{stroke:#38bdea;stroke-width:0.5px;}</style></defs><title>ico-rect</title><g id="Layer_2" data-name="Layer 2"><g id="Buttons"><circle class="cls-1" cx="15.95" cy="15.95" r="15.95"/><path class="cls-1" d="M16,29.26A13.31,13.31,0,1,1,29.26,16,13.33,13.33,0,0,1,16,29.26Z"/><path class="cls-2" d="M16,3.47A12.48,12.48,0,1,1,3.47,16,12.49,12.49,0,0,1,16,3.47m0-1.66A14.14,14.14,0,1,0,30.1,16,14.14,14.14,0,0,0,16,1.81Z"/><rect class="cls-2" x="7.67" y="12.59" width="17.15" height="6.92" rx="0.87" ry="0.87"/><rect class="cls-3" x="6.66" y="11.57" width="19.12" height="8.96" rx="1.04" ry="1.04"/><line class="cls-4" x1="9" y1="18.19" x2="14.5" y2="18.19"/></g></g></svg>