<svg xmlns="http://www.w3.org/2000/svg" viewBox="0 0 83.05 110.62"><defs><style>.cls-1{fill:#38bdea;}.cls-2,.cls-5{fill:#fff;}.cls-3{font-size:9.76px;fill:#323232;font-family:Raleway-Bold, Raleway;font-weight:700;}.cls-4{letter-spacing:-0.01em;}.cls-5{font-size:26.28px;font-family:Raleway-Medium, Raleway;}</style></defs><title>ico-competance</title><g id="Layer_2" data-name="Layer 2"><g id="Top"><path class="cls-1" d="M41.53,101.44A39.08,39.08,0,1,1,80.61,62.35,39.13,39.13,0,0,1,41.53,101.44Z"/><path class="cls-2" d="M41.53,25.71A36.64,36.64,0,1,1,4.88,62.35,36.69,36.69,0,0,1,41.53,25.71m0-4.88A41.53,41.53,0,1,0,83.05,62.35,41.53,41.53,0,0,0,41.53,20.83Z"/><text class="cls-3" transform="translate(8.11 8.35)"><tspan class="cls-4">C</tspan><tspan x="6.63" y="0">OMPETENCE</tspan></text><polygon class="cls-2" points="29.21 74.64 29.91 76.06 31.47 76.28 30.34 77.38 30.61 78.94 29.21 78.2 27.82 78.94 28.08 77.38 26.96 76.28 28.52 76.06 29.21 74.64"/><polygon class="cls-2" points="35.16 74.64 35.86 76.06 37.42 76.28 36.29 77.38 36.56 78.94 35.16 78.2 33.77 78.94 34.03 77.38 32.91 76.28 34.46 76.06 35.16 74.64"/><polygon class="cls-2" points="41.28 74.64 41.98 76.06 43.54 76.28 42.41 77.38 42.68 78.94 41.28 78.2 39.89 78.94 40.16 77.38 39.03 76.28 40.59 76.06 41.28 74.64"/><polygon class="cls-2" points="47.06 74.64 47.76 76.06 49.32 76.28 48.19 77.38 48.45 78.94 47.06 78.2 45.66 78.94 45.93 77.38 44.8 76.28 46.36 76.06 47.06 74.64"/><polygon class="cls-2" points="53.01 74.64 53.71 76.06 55.27 76.28 54.14 77.38 54.4 78.94 53.01 78.2 51.61 78.94 51.88 77.38 50.75 76.28 52.31 76.06 53.01 74.64"/><circle class="cls-2" cx="41.28" cy="48.85" r="6.08"/><path class="cls-2" d="M55.65,71.53H50l-1.25-3.89v3.89H34.11L34.56,68l-1.7,3.54H26.91l3.87-13.75a3.15,3.15,0,0,1,3-2.3h2.52l2.91.82a7.88,7.88,0,0,0,4.09,0l3.35-.86h2a3.15,3.15,0,0,1,3,2.29Z"/><path class="cls-1" d="M20.51,105.46a10,10,0,1,1,10-10A10,10,0,0,1,20.51,105.46Z"/><path class="cls-2" d="M20.51,86.23a9.21,9.21,0,1,1-9.21,9.21,9.22,9.22,0,0,1,9.21-9.21m0-1.63A10.84,10.84,0,1,0,31.35,95.44,10.84,10.84,0,0,0,20.51,84.61Z"/><text class="cls-5" transform="translate(14.87 104.71)">+</text></g></g></svg>