<svg xmlns="http://www.w3.org/2000/svg" viewBox="0 0 320.55 157.24"><defs><style>.cls-1{fill:#7971ae;}.cls-2{fill:#c9c9c9;}</style></defs><title>ico-meter</title><g id="Layer_2" data-name="Layer 2"><g id="Layer_1-2" data-name="Layer 1"><path class="cls-1" d="M127.36,149.58c11.48,11,30.13,10,41.64-2s32.76-75.93,32.76-75.93S139,95.81,127.44,107.89,115.88,138.62,127.36,149.58Z"/><path class="cls-1" d="M242.1,22.57A159.06,159.06,0,0,0,160.28,0C77.15,0,8.73,63.62,0,145.29H27.61l1.78-10.41A135.31,135.31,0,0,1,66,67l7.63-7.09A132.36,132.36,0,0,1,156.8,27.78l10.41.11a132,132,0,0,1,54.62,15Z"/><path class="cls-2" d="M242.39,22.75,222.14,43A133.92,133.92,0,0,1,248.8,61.54l7.48,7.25a135.34,135.34,0,0,1,34.86,66.1l1.79,10.4h27.61A163.16,163.16,0,0,0,242.39,22.75Z"/></g></g></svg>