<?xml version="1.0" encoding="utf-8"?>
<!-- Generator: Adobe Illustrator 21.0.2, SVG Export Plug-In . SVG Version: 6.00 Build 0)  -->
<svg version="1.1" id="Layer_1" xmlns="http://www.w3.org/2000/svg" xmlns:xlink="http://www.w3.org/1999/xlink" x="0px" y="0px"
	 viewBox="0 0 1886.9 1078.4" style="enable-background:new 0 0 1886.9 1078.4;" xml:space="preserve">
<style type="text/css">
	.st0{fill:#E6007E;}
	.st1{fill:#7971AE;}
	.st2{fill:#C9C9C9;}
	.st3{fill:none;}
</style>
<g>
	<g>
		<path class="st0" d="M303.8,198.6c0,0-38.2-9.8-43.6-20.4c-2.5-4.9,0-11.1,2.4-15.4c1.1-1.5,2.2-3.1,3.3-4.8v0
			c6.4-10.1,11.3-23.5,11.8-40c0.7-24.8-18.6-45-41.5-45.1l0,0c0,0,0,0-0.1,0c0,0,0,0,0,0l0,0c-22.9,0.1-42.3,20.2-41.5,45.1
			c0.5,16.5,5.4,29.9,11.7,40l0,0l0,0c1.1,1.7,2.2,3.3,3.3,4.8c2.5,4.3,4.9,10.5,2.4,15.4c-5.4,10.6-43.6,20.4-43.6,20.4
			c-7.4,2.4-12.7,9.4-12.7,17.5v16.8h160.9v-16.8C316.5,207.9,311.2,201,303.8,198.6z"/>
	</g>
</g>
<g>
	<path class="st0" d="M1085.6,84.6c-9.7-9.3-25.4-9.3-35,0c-6.7,6.4-8.8,15.7-6.2,23.8L988,160.6c-6-2.3-12.7-2.4-18.6-0.1
		l-22.8-21.9c2.7-8.2,0.7-17.5-6.1-24c-9.7-9.3-25.4-9.3-35,0c-6.8,6.5-8.8,15.8-6.1,24l-54.7,52.6c-8.5-2.6-18.3-0.7-25,5.8
		c-9.7,9.3-9.7,24.3,0,33.6c9.7,9.3,25.4,9.3,35,0c6.8-6.5,8.8-15.8,6.1-24l54.7-52.6c4.9,1.5,10.1,1.5,15,0l24.1,23.1
		c-1.9,7.7,0.3,16.2,6.6,22.3c9.7,9.3,25.4,9.3,35,0c6.3-6,8.4-14.4,6.6-22.1l57.6-53.3c8.6,2.7,18.4,0.8,25.2-5.8
		C1095.3,109,1095.3,93.9,1085.6,84.6z"/>
</g>
<g transform="translate(0,-952.36218)">
	<path class="st1" d="M1235.8,1039.5l-10.3,7l-12.2-2.5l-6.8,10.5l-12.2,2.3l-2.3,12.2l-10.5,6.8l2.5,12.2l-7,10.3l7,10.3l-2.5,12.2
		l10.5,6.8l2.3,12.2l12.2,2.3l6.8,10.5l12.2-2.5l10.3,7l10.3-7l12.2,2.5l6.8-10.5l12.2-2.3l2.3-12.2l10.5-6.8l-2.5-12.2l7-10.3
		l-7-10.3l2.5-12.2l-10.5-6.8l-2.3-12.2l-12.2-2.3l-6.8-10.5l-12.2,2.5L1235.8,1039.5z M1187.7,1129.3l-30.9,48.1l27.6-5.5l7.3,25.7
		l25.2-41.9l-2.8,0.6c-1.4,0.3-3-0.3-3.8-1.6l-6-9.1l-10.7-2.1c-1.4-0.3-2.7-1.5-2.9-2.9l-2.1-10.7L1187.7,1129.3L1187.7,1129.3z
		 M1284,1129.3l-0.9,0.6l-2.1,10.7c-0.3,1.4-1.5,2.7-2.9,2.9l-10.7,2.1l-6,9.1c-0.8,1.2-2.4,1.9-3.8,1.6l-2.8-0.6l25.2,41.9
		l7.3-25.7l27.6,5.5L1284,1129.3L1284,1129.3z"/>
</g>
<g>
	<path class="st1" d="M104.1,480.1c16.6-45.7,59.9-78.8,110.9-80.3v-43.6c-70,1.5-129,44.4-152.1,110.5L104.1,480.1z"/>
	<path class="st1" d="M121.6,646.6l25.6-35.2c-29-22.6-47.7-57.8-47.7-97.2c0-12.1,1.8-23.7,5-34.7l-41.7-13.5l0,0
		C42.5,533.6,65.3,603.8,121.6,646.6z"/>
	<path class="st1" d="M147.1,610.7l-25.6,35.2c28.6,19.9,61.3,30.3,95,30.3s66.4-10.5,95-30.3L286,610.7
		c-19.8,13.6-43.7,21.5-69.5,21.5C190.8,632.2,166.9,624.2,147.1,610.7z"/>
	<path class="st1" d="M368.6,467.6L327.4,481c3.2,10.9,5,22.4,5,34.4c0,39.1-18.5,73.9-47.2,96.2l25.3,34.8
		C366.3,604.1,388.8,534.7,368.6,467.6z"/>
	<path class="st2" d="M214.2,356.2v44c51.6,1.6,95.3,35,112.1,81.2l41.6-13.5C344.7,401.1,284.9,357.7,214.2,356.2z"/>
	<line class="st3" x1="215.9" y1="521.9" x2="215.9" y2="521.9"/>
</g>
<g>
	<path class="st0" d="M494.7,480.1c16.6-45.7,59.9-78.8,110.9-80.3v-43.6c-70,1.5-129,44.4-152.1,110.5L494.7,480.1z"/>
	<path class="st0" d="M512.3,646.6l25.6-35.2c-29-22.6-47.7-57.8-47.7-97.2c0-12.1,1.8-23.7,5-34.7l-41.7-13.5l0,0
		C433.1,533.6,456,603.8,512.3,646.6z"/>
	<path class="st2" d="M537.8,610.7l-25.6,35.2c28.6,19.9,61.3,30.3,95,30.3c33.7,0,66.4-10.5,95-30.3l-25.5-35.2
		c-19.8,13.6-43.7,21.5-69.5,21.5C581.5,632.2,557.5,624.2,537.8,610.7z"/>
	<path class="st2" d="M759.3,467.6L718.1,481c3.2,10.9,5,22.4,5,34.4c0,39.1-18.5,73.9-47.2,96.2l25.3,34.8
		C756.9,604.1,779.5,534.7,759.3,467.6z"/>
	<path class="st2" d="M604.9,356.2v44c51.6,1.6,95.3,35,112.1,81.2l41.6-13.5C735.3,401.1,675.6,357.7,604.9,356.2z"/>
	<line class="st3" x1="606.6" y1="521.9" x2="606.6" y2="521.9"/>
</g>
<g>
	<path class="st1" d="M906.7,480.1c16.6-45.7,59.9-78.8,110.9-80.3v-43.6c-70,1.5-129,44.4-152.1,110.5L906.7,480.1z"/>
	<path class="st2" d="M924.3,646.6l25.6-35.2c-29-22.6-47.7-57.8-47.7-97.2c0-12.1,1.8-23.7,5-34.7l-41.7-13.5l0,0
		C845.1,533.6,868,603.8,924.3,646.6z"/>
	<path class="st2" d="M949.7,610.7l-25.6,35.2c28.6,19.9,61.3,30.3,95,30.3s66.4-10.5,95-30.3l-25.5-35.2
		c-19.8,13.6-43.7,21.5-69.5,21.5C993.5,632.2,969.5,624.2,949.7,610.7z"/>
	<path class="st2" d="M1171.3,467.6l-41.2,13.4c3.2,10.9,5,22.4,5,34.4c0,39.1-18.5,73.9-47.2,96.2l25.3,34.8
		C1168.9,604.1,1191.5,534.7,1171.3,467.6z"/>
	<path class="st2" d="M1016.9,356.2v44c51.6,1.6,95.3,35,112.1,81.2l41.6-13.5C1147.3,401.1,1087.6,357.7,1016.9,356.2z"/>
	<line class="st3" x1="1018.6" y1="521.9" x2="1018.6" y2="521.9"/>
</g>
<g>
	<path class="st0" d="M1297.4,480.1c16.6-45.7,59.9-78.8,110.9-80.3v-43.6c-70,1.5-129,44.4-152.1,110.5L1297.4,480.1z"/>
	<path class="st0" d="M1315,646.6l25.6-35.2c-29-22.6-47.7-57.8-47.7-97.2c0-12.1,1.8-23.7,5-34.7l-41.7-13.5l0,0
		C1235.8,533.6,1258.6,603.8,1315,646.6z"/>
	<path class="st0" d="M1340.4,610.7l-25.6,35.2c28.6,19.9,61.3,30.3,95,30.3c33.7,0,66.4-10.5,95-30.3l-25.5-35.2
		c-19.8,13.6-43.7,21.5-69.5,21.5C1384.1,632.2,1360.2,624.2,1340.4,610.7z"/>
	<path class="st0" d="M1561.9,467.6l-41.2,13.4c3.2,10.9,5,22.4,5,34.4c0,39.1-18.5,73.9-47.2,96.2l25.3,34.8
		C1559.6,604.1,1582.1,534.7,1561.9,467.6z"/>
	<path class="st2" d="M1407.5,356.2v44c51.6,1.6,95.3,35,112.1,81.2l41.6-13.5C1538,401.1,1478.3,357.7,1407.5,356.2z"/>
	<line class="st3" x1="1409.2" y1="521.9" x2="1409.2" y2="521.9"/>
</g>
<g>
	<g>
		<path class="st1" d="M543.8,233.3c11.5,11,30.1,10,41.6-2c11.5-12.1,32.8-75.9,32.8-75.9s-62.8,24.2-74.3,36.2
			C532.3,203.6,532.3,222.3,543.8,233.3z"/>
	</g>
	<path class="st1" d="M658.5,106.3c-24-14.3-51.9-22.6-81.8-22.6c-83.1,0-151.5,63.6-160.3,145.3H444l1.8-10.4
		c5.5-26.2,18.5-49.6,36.6-67.8l7.6-7.1c22.5-19.4,51.5-31.3,83.2-32.2l10.4,0.1c19.6,1,38.1,6.3,54.6,15L658.5,106.3z"/>
	<path class="st2" d="M658.8,106.4l-20.3,20.3c9.6,5.1,18.6,11.3,26.7,18.5l7.5,7.2c17.2,18,29.6,40.7,34.9,66.1l1.8,10.4H737
		C731.4,176.8,701.4,132,658.8,106.4z"/>
</g>
<g>
	<path class="st0" d="M103.3,860c16.6-45.7,59.9-78.8,110.9-80.3v-43.6c-70,1.5-129,44.4-152.1,110.5L103.3,860z"/>
	<path class="st0" d="M120.8,1026.5l25.6-35.2c-29-22.6-47.7-57.8-47.7-97.2c0-12.1,1.8-23.7,5-34.7l-41.7-13.5l0,0
		C41.7,913.5,64.5,983.7,120.8,1026.5z"/>
	<path class="st1" d="M146.3,990.7l-25.6,35.2c28.6,19.9,61.3,30.3,95,30.3s66.4-10.5,95-30.3l-25.5-35.2
		c-19.8,13.6-43.7,21.5-69.5,21.5C190,1012.2,166.1,1004.2,146.3,990.7z"/>
	<path class="st2" d="M367.8,847.6L326.6,861c3.2,10.9,5,22.4,5,34.4c0,39.1-18.5,73.9-47.2,96.2l25.3,34.8
		C365.5,984.1,388,914.6,367.8,847.6z"/>
	<path class="st0" d="M213.4,736.2v44c51.6,1.6,95.3,35,112.1,81.2l41.6-13.5C343.9,781,284.2,737.7,213.4,736.2z"/>
	<line class="st3" x1="215.1" y1="901.8" x2="215.1" y2="901.8"/>
</g>
<g>
	<path class="st2" d="M645.1,752.8l-69.5,143.3l-30.1-157c9.7-1.9,19.8-3,30.1-3C600.6,736.2,624.2,742.1,645.1,752.8z"/>
	<path class="st0" d="M731.9,896.2c0,88.4-70,160-156.2,160s-156.3-71.6-156.3-160c0-44.2,17.5-84.2,45.8-113.2l110.5,113.2
		l155.7-14C731.7,886.8,731.9,891.5,731.9,896.2z"/>
	<path class="st1" d="M731.3,882.2l-155.7,14l69.5-143.3C692.7,777,726.5,825.4,731.3,882.2z"/>
	<path class="st0" d="M575.6,896.1L465.2,783c21.5-22.1,49.3-37.7,80.3-43.9L575.6,896.1z"/>
</g>
</svg>
