<svg id="Layer_1" data-name="Layer 1" xmlns="http://www.w3.org/2000/svg" viewBox="0 0 414.12 110.62"><defs><style>.cls-1{fill:#5580c0;}.cls-2{fill:#00a5a3;}.cls-3{fill:#38bdea;}.cls-15,.cls-20,.cls-22,.cls-31,.cls-4{fill:#fff;}.cls-5{fill:#e6007e;}.cls-6{font-size:9.76px;}.cls-23,.cls-24,.cls-6{fill:#323232;}.cls-15,.cls-23,.cls-24,.cls-6{font-family:Raleway-Bold, Raleway;font-weight:700;}.cls-24,.cls-7{letter-spacing:-0.01em;}.cls-8{letter-spacing:-0.01em;}.cls-9{letter-spacing:-0.02em;}.cls-10{letter-spacing:0em;}.cls-11{letter-spacing:0em;}.cls-12{letter-spacing:-0.01em;}.cls-13{letter-spacing:-0.01em;}.cls-14{letter-spacing:-0.03em;}.cls-15{font-size:36.62px;}.cls-16,.cls-17,.cls-18,.cls-19{fill:none;stroke:#fff;}.cls-16{stroke-width:1.29px;}.cls-17{stroke-linecap:round;}.cls-17,.cls-18{stroke-width:1.4px;}.cls-19,.cls-22{stroke-miterlimit:10;}.cls-19{stroke-width:0.72px;}.cls-20{font-size:26.28px;font-family:Raleway-Medium, Raleway;}.cls-21{fill:#656563;}.cls-22{stroke:#656563;stroke-width:0.18px;}.cls-23,.cls-24{font-size:4.88px;}.cls-25{letter-spacing:0em;}.cls-26{letter-spacing:-0.07em;}.cls-27{letter-spacing:-0.03em;}.cls-28{letter-spacing:-0.03em;}.cls-29{letter-spacing:-0.01em;}.cls-30{fill:#7971ae;}.cls-31{fill-rule:evenodd;}</style></defs><title>icons</title><path class="cls-1" d="M89,62.66a47.5,47.5,0,1,1,95,0"/><path class="cls-2" d="M267.09,62.11a47.5,47.5,0,0,1,95,0"/><path class="cls-3" d="M95,62.35a47.5,47.5,0,0,1-95,0"/><path class="cls-3" d="M47.5,101.44A39.08,39.08,0,1,1,86.59,62.35,39.13,39.13,0,0,1,47.5,101.44Z"/><path class="cls-4" d="M47.5,25.71A36.64,36.64,0,1,1,10.86,62.35,36.69,36.69,0,0,1,47.5,25.71m0-4.88A41.53,41.53,0,1,0,89,62.35,41.53,41.53,0,0,0,47.5,20.83Z"/><path class="cls-1" d="M136.53,101.44a39.08,39.08,0,1,1,39.08-39.08A39.13,39.13,0,0,1,136.53,101.44Z"/><path class="cls-4" d="M136.53,25.71A36.64,36.64,0,1,1,99.89,62.35a36.69,36.69,0,0,1,36.64-36.64m0-4.88a41.53,41.53,0,1,0,41.53,41.53,41.53,41.53,0,0,0-41.53-41.53Z"/><path class="cls-5" d="M273.07,62.35a47.5,47.5,0,0,1-95,0"/><path class="cls-5" d="M225.56,101.44a39.08,39.08,0,1,1,39.08-39.08A39.13,39.13,0,0,1,225.56,101.44Z"/><path class="cls-4" d="M225.56,25.71a36.64,36.64,0,1,1-36.64,36.64,36.69,36.69,0,0,1,36.64-36.64m0-4.88a41.53,41.53,0,1,0,41.53,41.53,41.53,41.53,0,0,0-41.53-41.53Z"/><path class="cls-2" d="M314.59,101.44a39.08,39.08,0,1,1,39.08-39.08A39.13,39.13,0,0,1,314.59,101.44Z"/><path class="cls-4" d="M314.59,25.71A36.64,36.64,0,1,1,278,62.35a36.69,36.69,0,0,1,36.64-36.64m0-4.88a41.53,41.53,0,1,0,41.53,41.53,41.53,41.53,0,0,0-41.53-41.53Z"/><text class="cls-6" transform="translate(14.09 8.35)"><tspan class="cls-7">C</tspan><tspan x="6.63" y="0">OMPETENCE</tspan></text><text class="cls-6" transform="translate(199.58 8.35)">R<tspan class="cls-8" x="6.49" y="0">E</tspan><tspan x="12.22" y="0">SOURCE</tspan></text><text class="cls-6" transform="translate(96.89 8.35)">QU<tspan class="cls-9" x="14.7" y="0">E</tspan><tspan class="cls-10" x="20.42" y="0">S</tspan><tspan x="26.36" y="0">TION </tspan><tspan class="cls-9" x="52.37" y="0">B</tspan><tspan class="cls-11" x="58.86" y="0">AN</tspan><tspan class="cls-12" x="72.87" y="0">K</tspan></text><text class="cls-6" transform="translate(282.91 8.35)"><tspan class="cls-13">A</tspan><tspan x="6.46" y="0">SS</tspan><tspan class="cls-8" x="18.43" y="0">E</tspan><tspan x="24.15" y="0">SSMEN</tspan><tspan class="cls-14" x="57.88" y="0">T</tspan></text><text class="cls-15" transform="translate(110.55 72.63)">?</text><text class="cls-15" transform="translate(128.86 72.63)">?</text><text class="cls-15" transform="translate(147.16 72.63)">?</text><polygon class="cls-4" points="35.19 74.64 35.89 76.06 37.45 76.28 36.32 77.38 36.59 78.94 35.19 78.2 33.8 78.94 34.06 77.38 32.93 76.28 34.49 76.06 35.19 74.64"/><polygon class="cls-4" points="41.14 74.64 41.84 76.06 43.4 76.28 42.27 77.38 42.53 78.94 41.14 78.2 39.74 78.94 40.01 77.38 38.88 76.28 40.44 76.06 41.14 74.64"/><polygon class="cls-4" points="47.26 74.64 47.96 76.06 49.52 76.28 48.39 77.38 48.66 78.94 47.26 78.2 45.87 78.94 46.13 77.38 45.01 76.28 46.56 76.06 47.26 74.64"/><polygon class="cls-4" points="53.04 74.64 53.73 76.06 55.29 76.28 54.17 77.38 54.43 78.94 53.04 78.2 51.64 78.94 51.91 77.38 50.78 76.28 52.34 76.06 53.04 74.64"/><polygon class="cls-4" points="58.99 74.64 59.68 76.06 61.24 76.28 60.12 77.38 60.38 78.94 58.99 78.2 57.59 78.94 57.86 77.38 56.73 76.28 58.29 76.06 58.99 74.64"/><circle class="cls-4" cx="47.26" cy="48.85" r="6.08"/><path class="cls-4" d="M61.63,71.53H56l-1.25-3.89v3.89H40.09L40.54,68l-1.7,3.54H32.89l3.87-13.75a3.15,3.15,0,0,1,3-2.3h2.52l2.91.82a7.88,7.88,0,0,0,4.09,0l3.35-.86h2a3.15,3.15,0,0,1,3,2.29Z"/><polygon class="cls-16" points="227.56 63.38 210.12 55.05 223.77 46.77 241.3 55.08 227.56 63.38"/><polyline class="cls-16" points="216.39 58.05 210.12 61.85 227.56 70.18 241.3 61.88 234.99 58.89"/><polyline class="cls-16" points="216.39 65.03 210.12 68.83 227.56 77.16 241.3 68.86 234.99 65.87"/><path class="cls-17" d="M313.56,75.35h-9.49a2,2,0,0,1-1.95-1.95v-25a2,2,0,0,1,1.95-1.95h19A2,2,0,0,1,325,48.41V62"/><rect class="cls-18" x="309.31" y="43.47" width="8.52" height="6.44" rx="0.56" ry="0.56"/><line class="cls-17" x1="307.87" y1="54.93" x2="319.26" y2="54.93"/><line class="cls-17" x1="307.87" y1="60.18" x2="319.26" y2="60.18"/><circle class="cls-19" cx="321.69" cy="70.67" r="7.91"/><path class="cls-4" d="M321.69,63.87a6.79,6.79,0,1,0,6.79,6.79A6.79,6.79,0,0,0,321.69,63.87Zm4.21,5.92-5.35,5.35-3.07-3.07a1.33,1.33,0,1,1,1.89-1.89l1.19,1.19L324,67.91a1.33,1.33,0,1,1,1.89,1.89Z"/><path class="cls-3" d="M38.88,95.44a12.4,12.4,0,1,1-24.79,0"/><path class="cls-3" d="M26.49,105.46a10,10,0,1,1,10-10A10,10,0,0,1,26.49,105.46Z"/><path class="cls-4" d="M26.49,86.23a9.21,9.21,0,1,1-9.21,9.21,9.22,9.22,0,0,1,9.21-9.21m0-1.63A10.84,10.84,0,1,0,37.32,95.44,10.84,10.84,0,0,0,26.49,84.61Z"/><text class="cls-20" transform="translate(20.84 104.71)">+</text><path class="cls-1" d="M171.95,94.12a12.4,12.4,0,1,1-24.79,0"/><path class="cls-1" d="M159.55,104.14a10,10,0,1,1,10-10A10,10,0,0,1,159.55,104.14Z"/><path class="cls-4" d="M159.55,84.91a9.21,9.21,0,1,1-9.21,9.21,9.22,9.22,0,0,1,9.21-9.21m0-1.63a10.84,10.84,0,1,0,10.84,10.84,10.84,10.84,0,0,0-10.84-10.84Z"/><text class="cls-20" transform="translate(153.91 103.38)">+</text><path class="cls-21" d="M389.43,85.84a13.59,13.59,0,1,1-27.19,0"/><path class="cls-21" d="M375.84,96.94a11.09,11.09,0,1,1,11.09-11.09A11.1,11.1,0,0,1,375.84,96.94Z"/><path class="cls-4" d="M375.84,75.54a10.3,10.3,0,1,1-10.3,10.3,10.31,10.31,0,0,1,10.3-10.3m0-1.58a11.88,11.88,0,1,0,11.88,11.88A11.88,11.88,0,0,0,375.84,74Z"/><path class="cls-21" d="M362.81,61.93a13.59,13.59,0,0,1,27.19,0"/><path class="cls-21" d="M376.4,73a11.09,11.09,0,1,1,11.09-11.09A11.1,11.1,0,0,1,376.4,73Z"/><path class="cls-4" d="M376.4,51.63a10.3,10.3,0,1,1-10.3,10.3,10.31,10.31,0,0,1,10.3-10.3m0-1.58a11.88,11.88,0,1,0,11.88,11.88A11.88,11.88,0,0,0,376.4,50.05Z"/><path class="cls-4" d="M380.92,62.14a.45.45,0,0,1-.13-.32V60.33a.45.45,0,0,1,.13-.32L382,58.94a.45.45,0,0,0,.07-.54l-.52-.9a.45.45,0,0,0-.5-.21l-1.47.39a.45.45,0,0,1-.34,0l-1.29-.75a.45.45,0,0,1-.21-.27l-.39-1.47a.45.45,0,0,0-.43-.33h-1a.45.45,0,0,0-.43.33l-.39,1.47a.45.45,0,0,1-.21.27l-1.29.75a.45.45,0,0,1-.34,0l-1.47-.39a.45.45,0,0,0-.5.21l-.52.9a.45.45,0,0,0,.07.54L371.87,60a.45.45,0,0,1,.13.32v1.49a.45.45,0,0,1-.13.32l-1.07,1.08a.45.45,0,0,0-.07.54l.52.9a.45.45,0,0,0,.5.21l1.47-.39a.45.45,0,0,1,.34,0l1.29.75a.45.45,0,0,1,.21.27l.39,1.47a.45.45,0,0,0,.43.33h1a.45.45,0,0,0,.43-.33l.39-1.47a.45.45,0,0,1,.21-.27l1.29-.75a.45.45,0,0,1,.34,0l1.47.39a.45.45,0,0,0,.5-.21l.52-.9a.45.45,0,0,0-.07-.54Zm-4.53,1.49a2.55,2.55,0,1,1,2.55-2.55A2.55,2.55,0,0,1,376.4,63.63Z"/><path class="cls-22" d="M378.26,82.37h-4.52l-2.94,2.94v.23l.9.9v.68l4.07,4.07a.79.79,0,0,0,.45.23.68.68,0,0,0,.68-.68.79.79,0,0,0-.23-.45l.45.45a.79.79,0,0,0,.45.23.68.68,0,0,0,.68-.68.79.79,0,0,0-.23-.45l.23.23a.79.79,0,0,0,.45.23.68.68,0,0,0,.68-.68.79.79,0,0,0-.23-.45l-.45-.45a.79.79,0,0,0,.45.23.68.68,0,0,0,.68-.68.79.79,0,0,0-.23-.45l-.23-.23h.23l.9-.9v-.45l.68-.68v-.23Z"/><path class="cls-22" d="M372.84,88.47a.79.79,0,0,1-.45.23.68.68,0,0,1-.68-.68.79.79,0,0,1,.23-.45Z"/><path class="cls-22" d="M373.74,89.37a.79.79,0,0,1-.45.23.68.68,0,0,1-.68-.68.79.79,0,0,1,.23-.45Z"/><path class="cls-22" d="M374.64,90.28a.79.79,0,0,1-.45.23.68.68,0,0,1-.68-.68.79.79,0,0,1,.23-.45Z"/><path class="cls-22" d="M375.55,91.18a.79.79,0,0,1-.45.23.68.68,0,0,1-.68-.68.79.79,0,0,1,.23-.45Z"/><line class="cls-22" x1="373.74" y1="82.37" x2="378.26" y2="82.37"/><polyline class="cls-22" points="381.19 85.53 380.51 86.21 380.51 86.66 379.61 87.57"/><line class="cls-22" x1="376.67" y1="86.66" x2="379.16" y2="89.15"/><path class="cls-22" d="M379.61,87.79a.79.79,0,0,1,.23.45.68.68,0,0,1-.68.68.79.79,0,0,1-.45-.23"/><path class="cls-22" d="M379.16,89.15a.79.79,0,0,1,.23.45.68.68,0,0,1-.68.68.79.79,0,0,1-.45-.23l-2.48-2.48"/><path class="cls-22" d="M378,89.82a.79.79,0,0,1,.23.45.68.68,0,0,1-.68.68.79.79,0,0,1-.45-.23l-2.26-2.26"/><path class="cls-22" d="M376.67,90.28a.79.79,0,0,1,.23.45.68.68,0,0,1-.68.68.79.79,0,0,1-.45-.23l-4.07-4.07v-.68l-.9-.9"/><path class="cls-22" d="M372.84,88.47a.79.79,0,0,1-.45.23.68.68,0,0,1-.68-.68.79.79,0,0,1,.23-.45"/><path class="cls-22" d="M373.74,89.37a.79.79,0,0,1-.45.23.68.68,0,0,1-.68-.68.79.79,0,0,1,.23-.45"/><path class="cls-22" d="M374.64,90.28a.79.79,0,0,1-.45.23.68.68,0,0,1-.68-.68.79.79,0,0,1,.23-.45"/><path class="cls-22" d="M375.55,91.18a.79.79,0,0,1-.45.23.68.68,0,0,1-.68-.68.79.79,0,0,1,.23-.45"/><path class="cls-22" d="M379.61,87.79l-2.94-2.94V83.5H376l-1.13,1.13a.79.79,0,0,1-.45.23.68.68,0,0,1-.68-.68.79.79,0,0,1,.23-.45l1.27-1.27"/><polyline class="cls-22" points="383 84.4 381.64 85.76 377.58 81.69 378.93 80.34"/><path class="cls-22" d="M381.19,84"/><path class="cls-22" d="M375.09,88.24"/><path class="cls-22" d="M374.64,88.69"/><rect class="cls-22" x="368.46" y="82.14" width="6.09" height="1.98" transform="translate(50.03 287.05) rotate(-45)"/><rect class="cls-22" x="379.18" y="80.09" width="1.98" height="6.09" transform="translate(52.57 293.18) rotate(-45)"/><path class="cls-22" d="M381.7,84.34a.33.33,0,1,0,.33.33.33.33,0,0,0-.33-.33Z"/><path class="cls-22" d="M370,84.34a.33.33,0,1,0,.33.33.33.33,0,0,0-.33-.33Z"/><text class="cls-23" transform="translate(391.29 60.91)">PROFILE</text><text class="cls-24" transform="translate(391.29 86.1)">C<tspan class="cls-25" x="3.32" y="0">ON</tspan><tspan class="cls-26" x="10.73" y="0">T</tspan><tspan class="cls-27" x="13.41" y="0">A</tspan><tspan x="16.57" y="0">C</tspan><tspan class="cls-28" x="19.88" y="0">T</tspan></text><text class="cls-23" transform="translate(391.29 34.62)">REPO<tspan class="cls-29" x="12.91" y="0">R</tspan><tspan x="16.11" y="0">TS</tspan></text><path class="cls-30" d="M389.23,34.6a13.59,13.59,0,1,1-27.19,0"/><path class="cls-30" d="M375.64,45.69A11.09,11.09,0,1,1,386.73,34.6,11.11,11.11,0,0,1,375.64,45.69Z"/><path class="cls-4" d="M375.64,24.3a10.3,10.3,0,1,1-10.3,10.3,10.31,10.31,0,0,1,10.3-10.3m0-1.58A11.88,11.88,0,1,0,387.52,34.6a11.88,11.88,0,0,0-11.88-11.88Z"/><path class="cls-31" d="M381.07,39.61h-9.35a.31.31,0,0,1-.31-.31V30a.31.31,0,1,1,.62,0v9h4.36v-.31h.31V39h2.8v-.93h.31V39h1.25a.31.31,0,0,1,0,.62Zm-1.56-6.23h.31v.93h-.31v-.93Zm.31,4h-.31v-.94h.31v.94Zm-.31-2.49h.31v.93h-.31v-.93Zm-2.8,3.11h-.31v-.93h.31v.93Zm-.31-2.49h.31v.93h-.31v-.93Zm-2.8,3.12h-.31v-.93h.31v.93Zm6.23-6.55v.63h-.31v-.6h0a.64.64,0,0,1-.34-.1l-2,2.3a.63.63,0,0,1-1,.76l-1.94.77a.78.78,0,0,1-.61.59v.65h-.31v-.63a.78.78,0,1,1,.82-1.18l1.82-.72a.64.64,0,0,1,.63-.59.63.63,0,0,1,.28.07l2.07-2.33a.65.65,0,0,1,0-.21.63.63,0,0,1,0-.13s0,0,0,0a.79.79,0,1,1,.94.77Zm-6.19,3.45a.24.24,0,0,0-.2-.1.24.24,0,0,0,0,.49.24.24,0,0,0,.2-.1v-.28Zm6-4.47a.24.24,0,1,0,.24.24.24.24,0,0,0-.24-.24Z"/></svg>