<svg xmlns="http://www.w3.org/2000/svg" viewBox="0 0 31.9 31.9"><defs><style>.cls-1,.cls-4{fill:#38bdea;}.cls-2{fill:#fff;}.cls-3{fill:none;stroke:#fff;stroke-miterlimit:10;stroke-width:0.5px;}.cls-4{font-size:10.1px;font-family:Raleway-SemiBold, Raleway;font-weight:700;}</style></defs><title>icon-xsq</title><g id="Layer_2" data-name="Layer 2"><g id="Buttons"><circle class="cls-1" cx="15.95" cy="15.95" r="15.95"/><path class="cls-1" d="M16,29.26A13.31,13.31,0,1,1,29.26,16,13.33,13.33,0,0,1,16,29.26Z"/><path class="cls-2" d="M16,3.47A12.48,12.48,0,1,1,3.47,16,12.49,12.49,0,0,1,16,3.47m0-1.66A14.14,14.14,0,1,0,30.1,16,14.14,14.14,0,0,0,16,1.81Z"/><rect class="cls-2" x="6.83" y="12.59" width="6.92" height="6.92" rx="0.57" ry="0.57"/><rect class="cls-3" x="5.81" y="11.57" width="8.96" height="8.96" rx="0.73" ry="0.73"/><text class="cls-4" transform="translate(7.65 18.67)">x</text><rect class="cls-2" x="17.95" y="12.59" width="6.92" height="6.92" rx="0.57" ry="0.57"/><rect class="cls-3" x="16.93" y="11.57" width="8.96" height="8.96" rx="0.73" ry="0.73"/></g></g></svg>