<svg id="Layer_2" data-name="Layer 2" xmlns="http://www.w3.org/2000/svg" viewBox="0 0 324.5 253.4"><defs><style>.cls-1{fill:#5680c1;}.cls-2{fill:#3abeea;}.cls-3{fill:#656563;}</style></defs><title>logo</title><path class="cls-1" d="M77.7,38.2a13.64,13.64,0,0,0-4,10.4l.2,28.6c0,13.5-4.5,25-13.7,34.5a46.48,46.48,0,0,1-34,14.6,16.07,16.07,0,0,1-12-4.4A15.89,15.89,0,0,1,9.5,110a16.69,16.69,0,0,1,4.4-12.2c3-3.2,7-4.8,11.9-4.9A14.86,14.86,0,0,0,40.7,77.6c0-1.5,0-3.1-.1-4.9.1-6.6.1-10,.1-10.1L40.5,49c-.2-13.7,4.3-25.2,13.4-34.6S74.5.2,88.1,0a16.69,16.69,0,0,1,12.2,4.4c3.2,3,4.8,7,4.9,11.9A15.69,15.69,0,0,1,100.9,28c-2.9,3-6.8,4.7-11.6,5.2C84.3,33.7,80.5,35.4,77.7,38.2Z"/><path class="cls-2" d="M113.8,72l16.7,43.3L147.2,72c2.3-6,6.5-9,12.5-9a14.48,14.48,0,0,1,10,3.9,12.34,12.34,0,0,1,4.3,9.6,14.22,14.22,0,0,1-1,5.3l-29.6,76.6c-2.9,7.4-7.1,11-12.9,11s-10-3.7-12.9-11L88,81.8a14.22,14.22,0,0,1-1-5.3,12.34,12.34,0,0,1,4.3-9.6,14.48,14.48,0,0,1,10-3.9C107.3,63,111.4,66,113.8,72Z"/><path class="cls-2" d="M214.4,35.4v118a13.1,13.1,0,0,1-3.9,9.9,13.81,13.81,0,0,1-10,3.8,13,13,0,0,1-13.7-13.7V35.4a13,13,0,0,1,13.7-13.7C209.8,21.7,214.4,26.3,214.4,35.4Z"/><path class="cls-2" d="M318.6,99.7l-26.1,25.5c-3,2.9-6.2,4.3-9.6,4.3a13.27,13.27,0,0,1-9.9-4.3,13.93,13.93,0,0,1-4.2-10q0-5.1,4.5-9.6L288,91.1a31.53,31.53,0,0,0-5.3-.4,24,24,0,0,0-17.4,7.1,23.61,23.61,0,0,0-7.1,17.4,24.4,24.4,0,0,0,7.1,17.5,23.55,23.55,0,0,0,17.4,7.2h18.2a13,13,0,0,1,13.7,13.7,13.81,13.81,0,0,1-3.8,10,13.1,13.1,0,0,1-9.9,3.9H282.6c-14.7,0-27.1-5-37.1-15.1s-15-22.5-15-37.2,5-27.1,15-37.1,22.4-15,37.1-15A51,51,0,0,1,320.4,79a13.58,13.58,0,0,1,4.1,9.4C324.5,93,322.5,96.7,318.6,99.7Z"/><path class="cls-3" d="M15.1,193.8a6.21,6.21,0,0,0-2.6-1.7,10.48,10.48,0,0,0-3.6-.7,7.27,7.27,0,0,0-4.4,1.1,4,4,0,0,0-1.4,3.1,3.06,3.06,0,0,0,.4,1.7,2.91,2.91,0,0,0,1.1,1.1,7.56,7.56,0,0,0,2,.8c.8.2,1.7.5,2.8.7s2.3.5,3.2.8a6.74,6.74,0,0,1,2.4,1.2,6.37,6.37,0,0,1,1.6,1.7,4.82,4.82,0,0,1,.5,2.6,6,6,0,0,1-.6,2.7,5.19,5.19,0,0,1-1.7,1.9,6.82,6.82,0,0,1-2.6,1.1,16.48,16.48,0,0,1-3.2.4A13.16,13.16,0,0,1,0,209l1.1-1.8a9.08,9.08,0,0,0,3.3,2.2,11.93,11.93,0,0,0,4.7.9,7.26,7.26,0,0,0,4.2-1,3.16,3.16,0,0,0,1.5-2.9,3.42,3.42,0,0,0-.4-1.8,3,3,0,0,0-1.3-1.2,10.2,10.2,0,0,0-2.1-.9c-.9-.3-1.8-.5-3-.8s-2.2-.6-3.1-.9a9,9,0,0,1-2.2-1.1,4.28,4.28,0,0,1-1.4-1.6,5.21,5.21,0,0,1-.5-2.3,6.39,6.39,0,0,1,.6-2.8A5.26,5.26,0,0,1,3,191a7.25,7.25,0,0,1,2.5-1.2,11.49,11.49,0,0,1,3.3-.4,10.19,10.19,0,0,1,4,.7A12.89,12.89,0,0,1,16,192Z"/><path class="cls-3" d="M45.4,212.1H43.2v-9.2a8.35,8.35,0,0,0-.9-4.3,2.87,2.87,0,0,0-2.7-1.4,5.66,5.66,0,0,0-1.8.3,5.37,5.37,0,0,0-1.6,1,6.44,6.44,0,0,0-2.1,3.4v10.2H31.9v-9.2a7.87,7.87,0,0,0-.9-4.3,3,3,0,0,0-2.7-1.3,4.6,4.6,0,0,0-3.3,1.3,7.86,7.86,0,0,0-2.1,3.4v10.1H20.7V195.6h2v3.7a7.89,7.89,0,0,1,2.7-3,6.63,6.63,0,0,1,3.6-1.1,4.87,4.87,0,0,1,3.4,1.2,4.39,4.39,0,0,1,1.5,3.1c1.5-2.8,3.7-4.3,6.4-4.3a5.21,5.21,0,0,1,2.3.5,4.28,4.28,0,0,1,1.6,1.4,6.91,6.91,0,0,1,.9,2.3,13.58,13.58,0,0,1,.3,2.9Z"/><path class="cls-3" d="M54.2,212.5a5.87,5.87,0,0,1-2.3-.4,5.44,5.44,0,0,1-1.8-1.1,6.1,6.1,0,0,1-1.2-1.6,4.33,4.33,0,0,1-.4-1.9,4.65,4.65,0,0,1,.5-2.1,4.28,4.28,0,0,1,1.4-1.6,6.39,6.39,0,0,1,2.2-1,12.61,12.61,0,0,1,2.8-.4,21.05,21.05,0,0,1,2.5.2,12.78,12.78,0,0,1,2.3.6v-1.5a4.6,4.6,0,0,0-1.3-3.5,4.38,4.38,0,0,0-3.4-1.3,7.51,7.51,0,0,0-2.6.5,9.14,9.14,0,0,0-2.7,1.5l-.8-1.4a13.12,13.12,0,0,1,3.1-1.6,8.59,8.59,0,0,1,3.2-.5,6.85,6.85,0,0,1,4.8,1.7,6.49,6.49,0,0,1,1.8,4.8v7.5c0,.6.3.9.8.9v1.9h-.9a1.92,1.92,0,0,1-1.2-.4,2,2,0,0,1-.6-1.1l-.1-1.3a7.88,7.88,0,0,1-2.8,2.3A7,7,0,0,1,54.2,212.5Zm.6-1.7a6.71,6.71,0,0,0,2.8-.6,5.43,5.43,0,0,0,2.2-1.7c.1-.2.3-.4.4-.6a1.42,1.42,0,0,0,.2-.6v-2.7a8.65,8.65,0,0,0-2.3-.6,17.85,17.85,0,0,0-2.3-.2,7.37,7.37,0,0,0-3.8.9,2.81,2.81,0,0,0-1.4,2.6,3.08,3.08,0,0,0,.3,1.3,2.84,2.84,0,0,0,.8,1.1,4.11,4.11,0,0,0,1.3.8A4.84,4.84,0,0,0,54.8,210.8Z"/><path class="cls-3" d="M75.5,197.5a6.15,6.15,0,0,0-3.8,1.2,6.52,6.52,0,0,0-2.3,3.1v10.3H67.2V195.6h2v4a8.23,8.23,0,0,1,2.3-2.9,4.41,4.41,0,0,1,3-1.2h.9v2Z"/><path class="cls-3" d="M86.4,211.3c-.1.1-.3.1-.6.3a6.89,6.89,0,0,1-.8.3c-.3.1-.7.2-1.1.3a5.28,5.28,0,0,1-1.3.1,5.07,5.07,0,0,1-1.3-.2,2.38,2.38,0,0,1-1.1-.6,3.92,3.92,0,0,1-.8-1,3.19,3.19,0,0,1-.3-1.4V197.3H76.8v-1.7h2.3V190h2.2v5.6h3.8v1.7H81.3v11.2a1.61,1.61,0,0,0,.6,1.3,2.12,2.12,0,0,0,1.4.4,3.81,3.81,0,0,0,1.6-.3,4.13,4.13,0,0,0,.9-.4Z"/><path class="cls-3" d="M96.3,189.6l8.1,19.8,8-19.8h2.3l-9.4,22.5h-1.9L94,189.6Z"/><path class="cls-3" d="M117.4,192.2V189h2.2v3.2Zm0,19.9V195.6h2.2v16.5Z"/><path class="cls-3" d="M132.4,197.5a6.15,6.15,0,0,0-3.8,1.2,6.52,6.52,0,0,0-2.3,3.1v10.3h-2.2V195.6h2v4a8.23,8.23,0,0,1,2.3-2.9,4.41,4.41,0,0,1,3-1.2h.9v2Z"/><path class="cls-3" d="M143.3,211.3c-.1.1-.3.1-.6.3a6.89,6.89,0,0,1-.8.3c-.3.1-.7.2-1.1.3a5.28,5.28,0,0,1-1.3.1,5.07,5.07,0,0,1-1.3-.2,2.38,2.38,0,0,1-1.1-.6,3.92,3.92,0,0,1-.8-1,3.19,3.19,0,0,1-.3-1.4V197.3h-2.3v-1.7H136V190h2.2v5.6H142v1.7h-3.8v11.2a1.61,1.61,0,0,0,.6,1.3,2.12,2.12,0,0,0,1.4.4,3.81,3.81,0,0,0,1.6-.3,4.13,4.13,0,0,0,.9-.4Z"/><path class="cls-3" d="M151,212.5a4.58,4.58,0,0,1-3.9-1.8,8.84,8.84,0,0,1-1.3-5.3v-9.7H148V205c0,3.7,1.3,5.6,3.8,5.6a6.28,6.28,0,0,0,1.9-.3,5.56,5.56,0,0,0,1.7-.9,9.27,9.27,0,0,0,1.4-1.4,8.48,8.48,0,0,0,1-1.9V195.7H160v13.7c0,.6.3.9.8.9v1.9a3.44,3.44,0,0,1-.9.1,2,2,0,0,1-1.3-.4,1.61,1.61,0,0,1-.5-1.1v-2.3a7.23,7.23,0,0,1-3,3A9.9,9.9,0,0,1,151,212.5Z"/><path class="cls-3" d="M169.1,212.5a5.87,5.87,0,0,1-2.3-.4A5.44,5.44,0,0,1,165,211a6.1,6.1,0,0,1-1.2-1.6,4.33,4.33,0,0,1-.4-1.9,4.65,4.65,0,0,1,.5-2.1,4.28,4.28,0,0,1,1.4-1.6,6.39,6.39,0,0,1,2.2-1,12.61,12.61,0,0,1,2.8-.4,21.05,21.05,0,0,1,2.5.2,12.78,12.78,0,0,1,2.3.6v-1.5a4.6,4.6,0,0,0-1.3-3.5,4.38,4.38,0,0,0-3.4-1.3,7.51,7.51,0,0,0-2.6.5,9.14,9.14,0,0,0-2.7,1.5l-.8-1.4a13.12,13.12,0,0,1,3.1-1.6,8.59,8.59,0,0,1,3.2-.5,6.85,6.85,0,0,1,4.8,1.7,6.49,6.49,0,0,1,1.8,4.8v7.5c0,.6.3.9.8.9v1.9h-.9a1.92,1.92,0,0,1-1.2-.4,2,2,0,0,1-.6-1.1l-.1-1.3a7.88,7.88,0,0,1-2.8,2.3A7,7,0,0,1,169.1,212.5Zm.5-1.7a6.71,6.71,0,0,0,2.8-.6,5.43,5.43,0,0,0,2.2-1.7c.1-.2.3-.4.4-.6a1.42,1.42,0,0,0,.2-.6v-2.7a8.65,8.65,0,0,0-2.3-.6,17.85,17.85,0,0,0-2.3-.2,7.37,7.37,0,0,0-3.8.9,2.81,2.81,0,0,0-1.4,2.6,3.08,3.08,0,0,0,.3,1.3,2.84,2.84,0,0,0,.8,1.1,4.11,4.11,0,0,0,1.3.8A4.84,4.84,0,0,0,169.6,210.8Z"/><path class="cls-3" d="M182.2,189h2.2v19.4a1.74,1.74,0,0,0,1.9,1.9,2.48,2.48,0,0,0,.8-.1,3.18,3.18,0,0,0,.9-.3l.4,1.7a5.41,5.41,0,0,1-1.5.4,10.4,10.4,0,0,1-1.5.2,3.2,3.2,0,0,1-2.3-.8,3.09,3.09,0,0,1-.9-2.4Z"/><path class="cls-3" d="M198.2,212.1V189.6h2.2v20.6h13v2H198.2Z"/><path class="cls-3" d="M223.6,212.5a7.25,7.25,0,0,1-3.3-.7,8.32,8.32,0,0,1-2.6-1.9,9.48,9.48,0,0,1-1.7-2.7,9.37,9.37,0,0,1,0-6.6,9.48,9.48,0,0,1,1.7-2.7,6.77,6.77,0,0,1,2.6-1.8,8.13,8.13,0,0,1,6.6,0,8.32,8.32,0,0,1,2.6,1.9,9.48,9.48,0,0,1,1.7,2.7,8.66,8.66,0,0,1,.6,3.2v.8H217.6a10.15,10.15,0,0,0,.6,2.5,6.9,6.9,0,0,0,1.3,2,6.41,6.41,0,0,0,1.9,1.3,5.93,5.93,0,0,0,2.3.5,8.75,8.75,0,0,0,1.6-.2,4.71,4.71,0,0,0,1.5-.6,12.5,12.5,0,0,0,1.2-.9,8.34,8.34,0,0,0,.8-1.2l1.9.5a6.19,6.19,0,0,1-1.1,1.7,10.1,10.1,0,0,1-1.6,1.3,7.22,7.22,0,0,1-2,.9A19.22,19.22,0,0,0,223.6,212.5Zm6.1-9.5a8.44,8.44,0,0,0-.6-2.4,6.41,6.41,0,0,0-1.3-1.9,6.15,6.15,0,0,0-1.9-1.2,6.81,6.81,0,0,0-4.6,0,7.61,7.61,0,0,0-1.9,1.2,6.41,6.41,0,0,0-1.3,1.9,8.44,8.44,0,0,0-.6,2.4Z"/><path class="cls-3" d="M239.4,212.5a5.87,5.87,0,0,1-2.3-.4,5.44,5.44,0,0,1-1.8-1.1,6.1,6.1,0,0,1-1.2-1.6,4.33,4.33,0,0,1-.4-1.9,4.65,4.65,0,0,1,.5-2.1,4.28,4.28,0,0,1,1.4-1.6,6.39,6.39,0,0,1,2.2-1,12.61,12.61,0,0,1,2.8-.4,21.05,21.05,0,0,1,2.5.2,12.78,12.78,0,0,1,2.3.6v-1.5a4.6,4.6,0,0,0-1.3-3.5,4.38,4.38,0,0,0-3.4-1.3,7.51,7.51,0,0,0-2.6.5,9.14,9.14,0,0,0-2.7,1.5l-.8-1.4a13.12,13.12,0,0,1,3.1-1.6,8.59,8.59,0,0,1,3.2-.5,6.85,6.85,0,0,1,4.8,1.7,6.49,6.49,0,0,1,1.8,4.8v7.5c0,.6.3.9.8.9v1.9h-.9a1.92,1.92,0,0,1-1.2-.4,2,2,0,0,1-.6-1.1l-.1-1.3a7.88,7.88,0,0,1-2.8,2.3A7,7,0,0,1,239.4,212.5Zm.5-1.7a6.71,6.71,0,0,0,2.8-.6,5.43,5.43,0,0,0,2.2-1.7c.1-.2.3-.4.4-.6a1.42,1.42,0,0,0,.2-.6v-2.7a8.65,8.65,0,0,0-2.3-.6,17.85,17.85,0,0,0-2.3-.2,7.37,7.37,0,0,0-3.8.9,2.81,2.81,0,0,0-1.4,2.6,3.08,3.08,0,0,0,.3,1.3,2.84,2.84,0,0,0,.8,1.1,4.11,4.11,0,0,0,1.3.8A4.84,4.84,0,0,0,239.9,210.8Z"/><path class="cls-3" d="M260.7,197.5a6.15,6.15,0,0,0-3.8,1.2,6.52,6.52,0,0,0-2.3,3.1v10.3h-2.2V195.6h2v4a8.23,8.23,0,0,1,2.3-2.9,4.41,4.41,0,0,1,3-1.2h.9v2Z"/><path class="cls-3" d="M277.4,212.1h-2.2v-9.2a7.87,7.87,0,0,0-.9-4.3,3,3,0,0,0-2.7-1.3,6.28,6.28,0,0,0-1.9.3,8.11,8.11,0,0,0-1.8,1,5,5,0,0,0-1.4,1.5,6.63,6.63,0,0,0-.9,1.9v10.1h-2V195.6h2v3.7a6.53,6.53,0,0,1,1.3-1.6,10.92,10.92,0,0,1,1.7-1.3,7,7,0,0,1,2-.8,7.61,7.61,0,0,1,2.1-.3,5.21,5.21,0,0,1,2.3.5,4,4,0,0,1,1.5,1.4,5.23,5.23,0,0,1,.8,2.3,25.35,25.35,0,0,1,.3,3v9.6Z"/><path class="cls-3" d="M281.9,192.2V189h2.2v3.2Zm0,19.9V195.6h2.2v16.5Z"/><path class="cls-3" d="M302.6,212.1h-2.2v-9.2a7.87,7.87,0,0,0-.9-4.3,3,3,0,0,0-2.7-1.3,6.28,6.28,0,0,0-1.9.3,8.11,8.11,0,0,0-1.8,1,5,5,0,0,0-1.4,1.5,6.63,6.63,0,0,0-.9,1.9v10.1h-2.2V195.6h2v3.7a6.53,6.53,0,0,1,1.3-1.6,10.92,10.92,0,0,1,1.7-1.3,7,7,0,0,1,2-.8,7.61,7.61,0,0,1,2.1-.3,5.21,5.21,0,0,1,2.3.5,4,4,0,0,1,1.5,1.4,5.23,5.23,0,0,1,.8,2.3,25.35,25.35,0,0,1,.3,3v9.6Z"/><path class="cls-3" d="M313.8,212.4a6.43,6.43,0,0,1-3.1-.7,7.49,7.49,0,0,1-2.4-1.9,9.19,9.19,0,0,1-1.6-2.7,8.53,8.53,0,0,1-.6-3.1,9.6,9.6,0,0,1,.6-3.3,8.06,8.06,0,0,1,1.6-2.7,8.76,8.76,0,0,1,2.4-1.9,6.43,6.43,0,0,1,3.1-.7,6.71,6.71,0,0,1,3.7,1.1,11.53,11.53,0,0,1,2.7,2.7v-3.5h1.9v16.6a5.79,5.79,0,0,1-.7,3,6.2,6.2,0,0,1-1.7,2.2,7.07,7.07,0,0,1-2.6,1.3,10.55,10.55,0,0,1-3.1.4,9,9,0,0,1-4.6-1,8.06,8.06,0,0,1-2.8-2.7l1.3-1a5.75,5.75,0,0,0,2.6,2.3,8.12,8.12,0,0,0,3.5.7,8.52,8.52,0,0,0,2.3-.3,5.73,5.73,0,0,0,1.9-1,5.09,5.09,0,0,0,1.3-1.6,5.21,5.21,0,0,0,.5-2.3V209a6.92,6.92,0,0,1-2.6,2.5A8.31,8.31,0,0,1,313.8,212.4Zm.6-1.8a6.28,6.28,0,0,0,1.9-.3,5.56,5.56,0,0,0,1.7-.9,8,8,0,0,0,1.3-1.3,5.07,5.07,0,0,0,.7-1.5v-5.1a7.54,7.54,0,0,0-1-1.7,8.64,8.64,0,0,0-1.4-1.3,12.9,12.9,0,0,0-1.6-.9,5.66,5.66,0,0,0-1.8-.3,5.14,5.14,0,0,0-2.5.6,6.55,6.55,0,0,0-1.8,1.5,7.76,7.76,0,0,0-1.2,2.2,6.72,6.72,0,0,0-.4,2.4,7,7,0,0,0,.5,2.5,7.43,7.43,0,0,0,1.3,2.1,4.83,4.83,0,0,0,2,1.4A4.14,4.14,0,0,0,314.4,210.6Z"/><path class="cls-3" d="M87.1,251.2v2H72V230.7H86.8v2H74.1v8.1h11v1.9h-11v8.6h13Z"/><path class="cls-3" d="M104.7,253.1h-2.2v-9.2a7.87,7.87,0,0,0-.9-4.3,3,3,0,0,0-2.7-1.3,6.28,6.28,0,0,0-1.9.3,8.11,8.11,0,0,0-1.8,1,5,5,0,0,0-1.4,1.5,6.63,6.63,0,0,0-.9,1.9v10.1H90.7V236.6h2v3.7a6.53,6.53,0,0,1,1.3-1.6,10.92,10.92,0,0,1,1.7-1.3,7,7,0,0,1,2-.8,7.61,7.61,0,0,1,2.1-.3,5.21,5.21,0,0,1,2.3.5,4,4,0,0,1,1.5,1.4,5.23,5.23,0,0,1,.8,2.3,25.34,25.34,0,0,1,.3,3v9.6Z"/><path class="cls-3" d="M113.8,253.1l-6.7-16.5h2.3l5.7,14.5,5.7-14.5h2.1l-6.7,16.5Z"/><path class="cls-3" d="M125.6,233.1v-3.2h2.2v3.2Zm0,20V236.6h2.2v16.5Z"/><path class="cls-3" d="M140.7,238.5a6.15,6.15,0,0,0-3.8,1.2,6.52,6.52,0,0,0-2.3,3.1v10.3h-2.2V236.6h2v4a8.23,8.23,0,0,1,2.3-2.9,4.41,4.41,0,0,1,3-1.2h.9v2Z"/><path class="cls-3" d="M150,253.4a7.25,7.25,0,0,1-3.3-.7,8.32,8.32,0,0,1-2.6-1.9,9.48,9.48,0,0,1-1.7-2.7,9.37,9.37,0,0,1,0-6.6,9.48,9.48,0,0,1,1.7-2.7,8.32,8.32,0,0,1,2.6-1.9,8.13,8.13,0,0,1,6.6,0,8.32,8.32,0,0,1,2.6,1.9,9.48,9.48,0,0,1,1.7,2.7,8.81,8.81,0,0,1,.6,3.3,9.6,9.6,0,0,1-.6,3.3,9.48,9.48,0,0,1-1.7,2.7,8.32,8.32,0,0,1-2.6,1.9A7.84,7.84,0,0,1,150,253.4Zm-6-8.5a7.51,7.51,0,0,0,.5,2.6,5.71,5.71,0,0,0,1.3,2.1,6.22,6.22,0,0,0,1.9,1.4,5.54,5.54,0,0,0,4.6,0,5.22,5.22,0,0,0,1.9-1.4,7.43,7.43,0,0,0,1.3-2.1,7,7,0,0,0,0-5.2,7.43,7.43,0,0,0-1.3-2.1,5.22,5.22,0,0,0-1.9-1.4,5.54,5.54,0,0,0-4.6,0,5.22,5.22,0,0,0-1.9,1.4,7.43,7.43,0,0,0-1.3,2.1A5.75,5.75,0,0,0,144,244.9Z"/><path class="cls-3" d="M175.6,253.1h-2.2v-9.2a7.87,7.87,0,0,0-.9-4.3,3,3,0,0,0-2.7-1.3,6.28,6.28,0,0,0-1.9.3,8.11,8.11,0,0,0-1.8,1,5,5,0,0,0-1.4,1.5,6.63,6.63,0,0,0-.9,1.9v10.1h-2.2V236.6h2v3.7a6.53,6.53,0,0,1,1.3-1.6,10.92,10.92,0,0,1,1.7-1.3,7,7,0,0,1,2-.8,7.61,7.61,0,0,1,2.1-.3,5.21,5.21,0,0,1,2.3.5,4,4,0,0,1,1.5,1.4,5.23,5.23,0,0,1,.8,2.3,25.35,25.35,0,0,1,.3,3v9.6Z"/><path class="cls-3" d="M204.6,253.1h-2.2v-9.2a8.35,8.35,0,0,0-.9-4.3,2.87,2.87,0,0,0-2.7-1.4,5.66,5.66,0,0,0-1.8.3,5.37,5.37,0,0,0-1.6,1,6.44,6.44,0,0,0-2.1,3.4v10.2h-2.2v-9.2a7.87,7.87,0,0,0-.9-4.3,3,3,0,0,0-2.7-1.3,4.6,4.6,0,0,0-3.3,1.3,7.86,7.86,0,0,0-2.1,3.4v10.1h-2.2V236.6h2v3.7a7.89,7.89,0,0,1,2.7-3,6.63,6.63,0,0,1,3.6-1.1,4.87,4.87,0,0,1,3.4,1.2,4.39,4.39,0,0,1,1.5,3.1c1.5-2.8,3.7-4.3,6.4-4.3a5.21,5.21,0,0,1,2.3.5,4.28,4.28,0,0,1,1.6,1.4,6.91,6.91,0,0,1,.9,2.3,13.57,13.57,0,0,1,.3,2.9v9.8Z"/><path class="cls-3" d="M216.4,253.4a7.25,7.25,0,0,1-3.3-.7,8.32,8.32,0,0,1-2.6-1.9,9.48,9.48,0,0,1-1.7-2.7,9.37,9.37,0,0,1,0-6.6,9.48,9.48,0,0,1,1.7-2.7,6.77,6.77,0,0,1,2.6-1.8,8.13,8.13,0,0,1,6.6,0,8.32,8.32,0,0,1,2.6,1.9,9.48,9.48,0,0,1,1.7,2.7,8.66,8.66,0,0,1,.6,3.2v.8H210.5a10.15,10.15,0,0,0,.6,2.5,6.9,6.9,0,0,0,1.3,2,6.41,6.41,0,0,0,1.9,1.3,5.93,5.93,0,0,0,2.3.5,8.75,8.75,0,0,0,1.6-.2,4.71,4.71,0,0,0,1.5-.6,12.5,12.5,0,0,0,1.2-.9,8.34,8.34,0,0,0,.8-1.2l1.9.5a6.19,6.19,0,0,1-1.1,1.7,10.1,10.1,0,0,1-1.6,1.3,7.22,7.22,0,0,1-2,.9A20.69,20.69,0,0,0,216.4,253.4Zm6-9.4a8.44,8.44,0,0,0-.6-2.4,6.4,6.4,0,0,0-1.3-1.9,6.15,6.15,0,0,0-1.9-1.2,6.81,6.81,0,0,0-4.6,0,7.61,7.61,0,0,0-1.9,1.2,6.41,6.41,0,0,0-1.3,1.9,8.44,8.44,0,0,0-.6,2.4Z"/><path class="cls-3" d="M241.6,253.1h-2.2v-9.2a7.87,7.87,0,0,0-.9-4.3,3,3,0,0,0-2.7-1.3,6.28,6.28,0,0,0-1.9.3,8.11,8.11,0,0,0-1.8,1,5,5,0,0,0-1.4,1.5,6.63,6.63,0,0,0-.9,1.9v10.1h-2.2V236.6h2v3.7a6.53,6.53,0,0,1,1.3-1.6,10.92,10.92,0,0,1,1.7-1.3,7,7,0,0,1,2-.8,7.61,7.61,0,0,1,2.1-.3,5.21,5.21,0,0,1,2.3.5,4,4,0,0,1,1.5,1.4,5.23,5.23,0,0,1,.8,2.3,25.35,25.35,0,0,1,.3,3v9.6Z"/><path class="cls-3" d="M254,252.3c-.1.1-.3.1-.6.3a6.89,6.89,0,0,1-.8.3c-.3.1-.7.2-1.1.3a5.28,5.28,0,0,1-1.3.1,5.07,5.07,0,0,1-1.3-.2,2.38,2.38,0,0,1-1.1-.6,3.91,3.91,0,0,1-.8-1,3.19,3.19,0,0,1-.3-1.4V238.3h-2.3v-1.7h2.3V231h2.2v5.6h3.8v1.7h-3.8v11.2a1.61,1.61,0,0,0,.6,1.3,2.12,2.12,0,0,0,1.4.4,3.81,3.81,0,0,0,1.6-.3,4.13,4.13,0,0,0,.9-.4Z"/></svg>