<svg xmlns="http://www.w3.org/2000/svg" viewBox="0 0 312.48 359.29"><defs><style>.cls-1{fill:#39c;}.cls-2{fill:#e6007e;}.cls-3{fill:#7971ae;}.cls-4{font-size:14px;font-family:MyriadPro-Regular, Myriad Pro;}.cls-5{fill:#fff;}</style></defs><title>pie-partic</title><g id="Layer_2" data-name="Layer 2"><g id="Layer_1-2" data-name="Layer 1"><path class="cls-1" d="M223.73,15.66,158.22,152,130.11,3c9.74-1.94,16.8-3,27.11-3C182.21,0,202.8,5,223.73,15.66Z"/><path class="cls-2" d="M312.48,161c0,88.39-70,160-156.22,160S0,249.39,0,161A161.45,161.45,0,0,1,45.77,47.83L156.26,161l155.65-14C312.28,151.64,312.48,156.3,312.48,161Z"/><path class="cls-3" d="M311.89,145,159.24,158,225.71,17.66C273.29,41.86,307.1,88.21,311.89,145Z"/><path class="cls-2" d="M157.24,162,45.79,47.79A154.92,154.92,0,0,1,126.13,3.89Z"/><rect class="cls-3" x="56.41" y="343.54" width="15.75" height="15.75"/><text class="cls-4" transform="translate(77.41 355.79)">Label 1</text><rect class="cls-2" x="142.46" y="343.54" width="15.75" height="15.75"/><text class="cls-4" transform="translate(163.34 355.79)">Label 2</text><rect class="cls-5" x="226.39" y="343.54" width="15.75" height="15.75"/><text class="cls-4" transform="translate(251.4 355.79)">Label 3</text><rect class="cls-1" x="230.12" y="343.54" width="15.75" height="15.75"/></g></g></svg>