<svg id="Layer_1" data-name="Layer 1" xmlns="http://www.w3.org/2000/svg" viewBox="0 0 122.75 66.15"><defs><style>.cls-1{fill:#fff;}</style></defs><title>svle-logo-white</title><g id="Layer_2" data-name="Layer 2"><g id="Login_Box" data-name="Login Box"><path class="cls-1" d="M26.59,14.91A5.33,5.33,0,0,0,25,19V30.1a18.64,18.64,0,0,1-5.34,13.47,18.1,18.1,0,0,1-13.25,5.7,6.33,6.33,0,0,1-4.56-1.64A6.22,6.22,0,0,1,0,42.87a6.52,6.52,0,0,1,1.71-4.77A6.24,6.24,0,0,1,6.37,36.2a5.79,5.79,0,0,0,5.8-5.78q0-.1,0-.19V19.07A18.52,18.52,0,0,1,30.13,0h.58a6.49,6.49,0,0,1,4.75,1.72A6.27,6.27,0,0,1,37.3,6.33a6.14,6.14,0,0,1-1.68,4.58,7.06,7.06,0,0,1-4.52,2A7.12,7.12,0,0,0,26.59,14.91Z"/><path class="cls-1" d="M40.65,28.11,47.16,45l6.48-16.9a4.9,4.9,0,0,1,4.87-3.51,5.64,5.64,0,0,1,3.9,1.59,4.77,4.77,0,0,1,1.68,3.75,5.57,5.57,0,0,1-.4,2.07L52.19,61.86c-1.13,2.89-2.77,4.29-5,4.29s-3.9-1.45-5-4.29L30.6,31.94a5.57,5.57,0,0,1-.4-2.07,4.77,4.77,0,0,1,1.68-3.75,5.64,5.64,0,0,1,3.9-1.59A4.93,4.93,0,0,1,40.65,28.11Z"/><path class="cls-1" d="M79.84,13.82V59.89a5.12,5.12,0,0,1-1.58,3.86,5.38,5.38,0,0,1-3.9,1.48A5.08,5.08,0,0,1,69,59.87V13.8a5.07,5.07,0,0,1,5.34-5.35C78.05,8.46,79.84,10.26,79.84,13.82Z"/><path class="cls-1" d="M120.45,38.93l-10.18,10a5.3,5.3,0,0,1-3.74,1.68,5.16,5.16,0,0,1-3.85-1.68A5.44,5.44,0,0,1,101.1,45a5.26,5.26,0,0,1,1.68-3.7l5.72-5.66a12.25,12.25,0,0,0-2.06-.16,9.34,9.34,0,0,0-6.83,2.64,9.24,9.24,0,0,0-2.77,6.8,9.54,9.54,0,0,0,2.77,6.91,9.17,9.17,0,0,0,6.78,2.81h7.16A5.08,5.08,0,0,1,118.9,60a5.41,5.41,0,0,1-1.47,3.91,5.1,5.1,0,0,1-3.85,1.59h-7.15A19.52,19.52,0,0,1,92,59.59a20.93,20.93,0,0,1,0-29,19.63,19.63,0,0,1,14.45-5.86,19.85,19.85,0,0,1,14.72,6.21,5.22,5.22,0,0,1-.7,8.09Z"/></g></g></svg>