<svg xmlns="http://www.w3.org/2000/svg" viewBox="0 0 127.2 127.71"><defs><style>.cls-1{fill:#38bdea;}.cls-2{fill:#fff;}</style></defs><title>svle-logo</title><g id="Layer_2" data-name="Layer 2"><g id="Login_Box" data-name="Login Box"><polygon class="cls-1" points="63.89 127.71 86.57 105.03 43.19 105.03 63.89 127.71"/><path class="cls-1" d="M127.2,55.59A63.6,63.6,0,1,1,0,55.59"/><path class="cls-1" d="M63.6,107.92A52.33,52.33,0,1,1,115.92,55.6,52.39,52.39,0,0,1,63.6,107.92Z"/><path class="cls-2" d="M63.6,6.54A49.06,49.06,0,1,1,14.54,55.59,49.11,49.11,0,0,1,63.6,6.54M63.6,0a55.59,55.59,0,1,0,55.59,55.59A55.59,55.59,0,0,0,63.6,0Z"/><path class="cls-2" d="M42.93,42.4a3.35,3.35,0,0,0-1,2.56l0,7a11.72,11.72,0,0,1-3.37,8.48,11.43,11.43,0,0,1-8.36,3.59A4,4,0,0,1,27.32,63,3.91,3.91,0,0,1,26.16,60a4.1,4.1,0,0,1,1.08-3,3.94,3.94,0,0,1,2.93-1.2,3.65,3.65,0,0,0,3.66-3.76c0-.37,0-.76,0-1.2,0-1.62,0-2.46,0-2.48l0-3.34a11.67,11.67,0,0,1,11.7-12,4.1,4.1,0,0,1,3,1.08A3.94,3.94,0,0,1,49.69,37a3.86,3.86,0,0,1-1.06,2.88,4.46,4.46,0,0,1-2.85,1.28A4.5,4.5,0,0,0,42.93,42.4Z"/><path class="cls-2" d="M51.8,50.71l4.11,10.64L60,50.71a3.09,3.09,0,0,1,3.07-2.21,3.56,3.56,0,0,1,2.46,1,3,3,0,0,1,1.06,2.36,3.5,3.5,0,0,1-.25,1.3L59.08,71.95c-.71,1.82-1.75,2.7-3.17,2.7s-2.46-.91-3.17-2.7L45.46,53.12a3.5,3.5,0,0,1-.25-1.3,3,3,0,0,1,1.06-2.36,3.56,3.56,0,0,1,2.46-1A3.11,3.11,0,0,1,51.8,50.71Z"/><path class="cls-2" d="M76.53,41.71v29a3.22,3.22,0,0,1-1,2.43,3.4,3.4,0,0,1-2.46.93,3.2,3.2,0,0,1-3.37-3.37v-29a3.2,3.2,0,0,1,3.37-3.37C75.4,38.34,76.53,39.47,76.53,41.71Z"/><path class="cls-2" d="M102.15,57.52l-6.42,6.27a3.35,3.35,0,0,1-2.36,1.06,3.26,3.26,0,0,1-2.43-1.06,3.42,3.42,0,0,1-1-2.46A3.31,3.31,0,0,1,91,59l3.61-3.56a7.75,7.75,0,0,0-1.3-.1A5.9,5.9,0,0,0,89,57a5.81,5.81,0,0,0-1.75,4.28A6,6,0,0,0,89,65.63a5.79,5.79,0,0,0,4.28,1.77H97.8a3.2,3.2,0,0,1,3.37,3.37,3.4,3.4,0,0,1-.93,2.46,3.22,3.22,0,0,1-2.43,1H93.3a12.33,12.33,0,0,1-9.12-3.71,13.15,13.15,0,0,1,0-18.26,12.4,12.4,0,0,1,9.12-3.69,12.54,12.54,0,0,1,9.29,3.91,3.28,3.28,0,0,1-.44,5.09Z"/></g></g></svg>